G75*
%MOIN*%
%OFA0B0*%
%FSLAX25Y25*%
%IPPOS*%
%LPD*%
%AMOC8*
5,1,8,0,0,1.08239X$1,22.5*
%
%ADD10C,0.01000*%
%ADD11C,0.00000*%
D10*
X0001500Y0001500D02*
X0001500Y0086461D01*
X0150201Y0086461D01*
X0150201Y0001500D01*
X0001500Y0001500D01*
D11*
X0108744Y0018783D02*
X0108746Y0018888D01*
X0108752Y0018993D01*
X0108762Y0019097D01*
X0108776Y0019201D01*
X0108794Y0019305D01*
X0108816Y0019407D01*
X0108841Y0019509D01*
X0108871Y0019610D01*
X0108904Y0019709D01*
X0108941Y0019807D01*
X0108982Y0019904D01*
X0109027Y0019999D01*
X0109075Y0020092D01*
X0109126Y0020184D01*
X0109182Y0020273D01*
X0109240Y0020360D01*
X0109302Y0020445D01*
X0109366Y0020528D01*
X0109434Y0020608D01*
X0109505Y0020685D01*
X0109579Y0020759D01*
X0109656Y0020831D01*
X0109735Y0020900D01*
X0109817Y0020965D01*
X0109901Y0021028D01*
X0109988Y0021087D01*
X0110077Y0021143D01*
X0110168Y0021196D01*
X0110261Y0021245D01*
X0110355Y0021290D01*
X0110451Y0021332D01*
X0110549Y0021370D01*
X0110648Y0021404D01*
X0110749Y0021435D01*
X0110850Y0021461D01*
X0110953Y0021484D01*
X0111056Y0021503D01*
X0111160Y0021518D01*
X0111264Y0021529D01*
X0111369Y0021536D01*
X0111474Y0021539D01*
X0111579Y0021538D01*
X0111684Y0021533D01*
X0111788Y0021524D01*
X0111892Y0021511D01*
X0111996Y0021494D01*
X0112099Y0021473D01*
X0112201Y0021448D01*
X0112302Y0021420D01*
X0112401Y0021387D01*
X0112500Y0021351D01*
X0112597Y0021311D01*
X0112692Y0021268D01*
X0112786Y0021220D01*
X0112878Y0021170D01*
X0112968Y0021116D01*
X0113056Y0021058D01*
X0113141Y0020997D01*
X0113224Y0020933D01*
X0113305Y0020866D01*
X0113383Y0020796D01*
X0113458Y0020722D01*
X0113530Y0020647D01*
X0113600Y0020568D01*
X0113666Y0020487D01*
X0113730Y0020403D01*
X0113790Y0020317D01*
X0113846Y0020229D01*
X0113900Y0020138D01*
X0113950Y0020046D01*
X0113996Y0019952D01*
X0114039Y0019856D01*
X0114078Y0019758D01*
X0114113Y0019660D01*
X0114144Y0019559D01*
X0114172Y0019458D01*
X0114196Y0019356D01*
X0114216Y0019253D01*
X0114232Y0019149D01*
X0114244Y0019045D01*
X0114252Y0018940D01*
X0114256Y0018835D01*
X0114256Y0018731D01*
X0114252Y0018626D01*
X0114244Y0018521D01*
X0114232Y0018417D01*
X0114216Y0018313D01*
X0114196Y0018210D01*
X0114172Y0018108D01*
X0114144Y0018007D01*
X0114113Y0017906D01*
X0114078Y0017808D01*
X0114039Y0017710D01*
X0113996Y0017614D01*
X0113950Y0017520D01*
X0113900Y0017428D01*
X0113846Y0017337D01*
X0113790Y0017249D01*
X0113730Y0017163D01*
X0113666Y0017079D01*
X0113600Y0016998D01*
X0113530Y0016919D01*
X0113458Y0016844D01*
X0113383Y0016770D01*
X0113305Y0016700D01*
X0113224Y0016633D01*
X0113141Y0016569D01*
X0113056Y0016508D01*
X0112968Y0016450D01*
X0112878Y0016396D01*
X0112786Y0016346D01*
X0112692Y0016298D01*
X0112597Y0016255D01*
X0112500Y0016215D01*
X0112401Y0016179D01*
X0112302Y0016146D01*
X0112201Y0016118D01*
X0112099Y0016093D01*
X0111996Y0016072D01*
X0111892Y0016055D01*
X0111788Y0016042D01*
X0111684Y0016033D01*
X0111579Y0016028D01*
X0111474Y0016027D01*
X0111369Y0016030D01*
X0111264Y0016037D01*
X0111160Y0016048D01*
X0111056Y0016063D01*
X0110953Y0016082D01*
X0110850Y0016105D01*
X0110749Y0016131D01*
X0110648Y0016162D01*
X0110549Y0016196D01*
X0110451Y0016234D01*
X0110355Y0016276D01*
X0110261Y0016321D01*
X0110168Y0016370D01*
X0110077Y0016423D01*
X0109988Y0016479D01*
X0109901Y0016538D01*
X0109817Y0016601D01*
X0109735Y0016666D01*
X0109656Y0016735D01*
X0109579Y0016807D01*
X0109505Y0016881D01*
X0109434Y0016958D01*
X0109366Y0017038D01*
X0109302Y0017121D01*
X0109240Y0017206D01*
X0109182Y0017293D01*
X0109126Y0017382D01*
X0109075Y0017474D01*
X0109027Y0017567D01*
X0108982Y0017662D01*
X0108941Y0017759D01*
X0108904Y0017857D01*
X0108871Y0017956D01*
X0108841Y0018057D01*
X0108816Y0018159D01*
X0108794Y0018261D01*
X0108776Y0018365D01*
X0108762Y0018469D01*
X0108752Y0018573D01*
X0108746Y0018678D01*
X0108744Y0018783D01*
X0108744Y0054217D02*
X0108746Y0054322D01*
X0108752Y0054427D01*
X0108762Y0054531D01*
X0108776Y0054635D01*
X0108794Y0054739D01*
X0108816Y0054841D01*
X0108841Y0054943D01*
X0108871Y0055044D01*
X0108904Y0055143D01*
X0108941Y0055241D01*
X0108982Y0055338D01*
X0109027Y0055433D01*
X0109075Y0055526D01*
X0109126Y0055618D01*
X0109182Y0055707D01*
X0109240Y0055794D01*
X0109302Y0055879D01*
X0109366Y0055962D01*
X0109434Y0056042D01*
X0109505Y0056119D01*
X0109579Y0056193D01*
X0109656Y0056265D01*
X0109735Y0056334D01*
X0109817Y0056399D01*
X0109901Y0056462D01*
X0109988Y0056521D01*
X0110077Y0056577D01*
X0110168Y0056630D01*
X0110261Y0056679D01*
X0110355Y0056724D01*
X0110451Y0056766D01*
X0110549Y0056804D01*
X0110648Y0056838D01*
X0110749Y0056869D01*
X0110850Y0056895D01*
X0110953Y0056918D01*
X0111056Y0056937D01*
X0111160Y0056952D01*
X0111264Y0056963D01*
X0111369Y0056970D01*
X0111474Y0056973D01*
X0111579Y0056972D01*
X0111684Y0056967D01*
X0111788Y0056958D01*
X0111892Y0056945D01*
X0111996Y0056928D01*
X0112099Y0056907D01*
X0112201Y0056882D01*
X0112302Y0056854D01*
X0112401Y0056821D01*
X0112500Y0056785D01*
X0112597Y0056745D01*
X0112692Y0056702D01*
X0112786Y0056654D01*
X0112878Y0056604D01*
X0112968Y0056550D01*
X0113056Y0056492D01*
X0113141Y0056431D01*
X0113224Y0056367D01*
X0113305Y0056300D01*
X0113383Y0056230D01*
X0113458Y0056156D01*
X0113530Y0056081D01*
X0113600Y0056002D01*
X0113666Y0055921D01*
X0113730Y0055837D01*
X0113790Y0055751D01*
X0113846Y0055663D01*
X0113900Y0055572D01*
X0113950Y0055480D01*
X0113996Y0055386D01*
X0114039Y0055290D01*
X0114078Y0055192D01*
X0114113Y0055094D01*
X0114144Y0054993D01*
X0114172Y0054892D01*
X0114196Y0054790D01*
X0114216Y0054687D01*
X0114232Y0054583D01*
X0114244Y0054479D01*
X0114252Y0054374D01*
X0114256Y0054269D01*
X0114256Y0054165D01*
X0114252Y0054060D01*
X0114244Y0053955D01*
X0114232Y0053851D01*
X0114216Y0053747D01*
X0114196Y0053644D01*
X0114172Y0053542D01*
X0114144Y0053441D01*
X0114113Y0053340D01*
X0114078Y0053242D01*
X0114039Y0053144D01*
X0113996Y0053048D01*
X0113950Y0052954D01*
X0113900Y0052862D01*
X0113846Y0052771D01*
X0113790Y0052683D01*
X0113730Y0052597D01*
X0113666Y0052513D01*
X0113600Y0052432D01*
X0113530Y0052353D01*
X0113458Y0052278D01*
X0113383Y0052204D01*
X0113305Y0052134D01*
X0113224Y0052067D01*
X0113141Y0052003D01*
X0113056Y0051942D01*
X0112968Y0051884D01*
X0112878Y0051830D01*
X0112786Y0051780D01*
X0112692Y0051732D01*
X0112597Y0051689D01*
X0112500Y0051649D01*
X0112401Y0051613D01*
X0112302Y0051580D01*
X0112201Y0051552D01*
X0112099Y0051527D01*
X0111996Y0051506D01*
X0111892Y0051489D01*
X0111788Y0051476D01*
X0111684Y0051467D01*
X0111579Y0051462D01*
X0111474Y0051461D01*
X0111369Y0051464D01*
X0111264Y0051471D01*
X0111160Y0051482D01*
X0111056Y0051497D01*
X0110953Y0051516D01*
X0110850Y0051539D01*
X0110749Y0051565D01*
X0110648Y0051596D01*
X0110549Y0051630D01*
X0110451Y0051668D01*
X0110355Y0051710D01*
X0110261Y0051755D01*
X0110168Y0051804D01*
X0110077Y0051857D01*
X0109988Y0051913D01*
X0109901Y0051972D01*
X0109817Y0052035D01*
X0109735Y0052100D01*
X0109656Y0052169D01*
X0109579Y0052241D01*
X0109505Y0052315D01*
X0109434Y0052392D01*
X0109366Y0052472D01*
X0109302Y0052555D01*
X0109240Y0052640D01*
X0109182Y0052727D01*
X0109126Y0052816D01*
X0109075Y0052908D01*
X0109027Y0053001D01*
X0108982Y0053096D01*
X0108941Y0053193D01*
X0108904Y0053291D01*
X0108871Y0053390D01*
X0108841Y0053491D01*
X0108816Y0053593D01*
X0108794Y0053695D01*
X0108776Y0053799D01*
X0108762Y0053903D01*
X0108752Y0054007D01*
X0108746Y0054112D01*
X0108744Y0054217D01*
M02*
