G75*
%MOIN*%
%OFA0B0*%
%FSLAX25Y25*%
%IPPOS*%
%LPD*%
%AMOC8*
5,1,8,0,0,1.08239X$1,22.5*
%
%ADD10C,0.01000*%
%ADD11C,0.00500*%
%ADD12C,0.00800*%
%ADD13C,0.00100*%
%ADD14C,0.00600*%
%ADD15C,0.00000*%
D10*
X0001500Y0001500D02*
X0001500Y0086461D01*
X0150201Y0086461D01*
X0150201Y0001500D01*
X0001500Y0001500D01*
D11*
X0009116Y0010791D02*
X0009184Y0046295D01*
X0009177Y0046323D02*
X0066657Y0046323D01*
X0066657Y0010890D01*
X0009177Y0010890D01*
X0091815Y0016815D02*
X0091815Y0056185D01*
X0131185Y0056185D01*
X0131185Y0016815D01*
X0091815Y0016815D01*
X0059150Y0079250D02*
X0054646Y0079250D01*
X0059150Y0079250D02*
X0059150Y0082253D01*
X0059150Y0083854D02*
X0054646Y0083854D01*
X0054646Y0086856D01*
X0054646Y0088458D02*
X0054646Y0090710D01*
X0055397Y0091460D01*
X0058399Y0091460D01*
X0059150Y0090710D01*
X0059150Y0088458D01*
X0054646Y0088458D01*
X0059150Y0086856D02*
X0059150Y0083854D01*
X0056898Y0083854D02*
X0056898Y0085355D01*
X0056147Y0093062D02*
X0054646Y0094563D01*
X0059150Y0094563D01*
X0059150Y0093062D02*
X0059150Y0096064D01*
D12*
X0054000Y0076500D02*
X0069000Y0076500D01*
X0085500Y0071500D02*
X0086500Y0071500D01*
X0086500Y0074500D01*
X0106500Y0074500D01*
X0106500Y0071500D01*
X0107500Y0071500D01*
X0106500Y0071500D02*
X0106500Y0068500D01*
X0086500Y0068500D01*
X0086500Y0071500D01*
D13*
X0086550Y0076550D02*
X0086550Y0078051D01*
X0087301Y0078051D01*
X0087551Y0077801D01*
X0087551Y0077301D01*
X0087301Y0077050D01*
X0086550Y0077050D01*
X0087050Y0077050D02*
X0087551Y0076550D01*
X0088023Y0076550D02*
X0089024Y0076550D01*
X0088524Y0076550D02*
X0088524Y0078051D01*
X0088023Y0077551D01*
X0053691Y0076829D02*
X0054231Y0076109D01*
X0054230Y0076110D02*
X0053997Y0075929D01*
X0053769Y0075743D01*
X0053545Y0075551D01*
X0053326Y0075354D01*
X0053112Y0075152D01*
X0052903Y0074944D01*
X0052700Y0074731D01*
X0052501Y0074514D01*
X0052308Y0074291D01*
X0052120Y0074064D01*
X0051938Y0073833D01*
X0051761Y0073597D01*
X0051591Y0073356D01*
X0051426Y0073112D01*
X0051268Y0072864D01*
X0051115Y0072612D01*
X0050969Y0072356D01*
X0050829Y0072097D01*
X0050695Y0071834D01*
X0050568Y0071569D01*
X0050447Y0071300D01*
X0050333Y0071028D01*
X0050226Y0070754D01*
X0050125Y0070477D01*
X0050031Y0070198D01*
X0049944Y0069916D01*
X0049864Y0069633D01*
X0049791Y0069347D01*
X0049725Y0069060D01*
X0049666Y0068771D01*
X0049614Y0068481D01*
X0049569Y0068190D01*
X0049531Y0067898D01*
X0049501Y0067605D01*
X0049477Y0067311D01*
X0049461Y0067017D01*
X0049452Y0066723D01*
X0049450Y0066428D01*
X0049456Y0066133D01*
X0049468Y0065839D01*
X0049488Y0065545D01*
X0049515Y0065252D01*
X0049549Y0064959D01*
X0049590Y0064667D01*
X0049639Y0064377D01*
X0049694Y0064087D01*
X0049756Y0063800D01*
X0049826Y0063513D01*
X0049903Y0063229D01*
X0049986Y0062946D01*
X0050076Y0062666D01*
X0050173Y0062388D01*
X0050277Y0062112D01*
X0050388Y0061839D01*
X0050505Y0061569D01*
X0050629Y0061301D01*
X0050759Y0061037D01*
X0050896Y0060776D01*
X0051039Y0060519D01*
X0051189Y0060265D01*
X0051344Y0060014D01*
X0051506Y0059768D01*
X0051673Y0059526D01*
X0051847Y0059288D01*
X0052026Y0059054D01*
X0052211Y0058824D01*
X0052401Y0058600D01*
X0052597Y0058379D01*
X0052798Y0058164D01*
X0053005Y0057954D01*
X0053216Y0057749D01*
X0053433Y0057549D01*
X0053654Y0057354D01*
X0053880Y0057165D01*
X0054110Y0056982D01*
X0054345Y0056804D01*
X0054585Y0056632D01*
X0054828Y0056466D01*
X0055075Y0056306D01*
X0055326Y0056152D01*
X0055581Y0056004D01*
X0055840Y0055862D01*
X0056101Y0055727D01*
X0056366Y0055598D01*
X0056634Y0055476D01*
X0056905Y0055360D01*
X0057179Y0055251D01*
X0057455Y0055149D01*
X0057734Y0055054D01*
X0058015Y0054965D01*
X0058298Y0054883D01*
X0058583Y0054808D01*
X0058870Y0054741D01*
X0059158Y0054680D01*
X0059448Y0054626D01*
X0059739Y0054579D01*
X0060031Y0054540D01*
X0060323Y0054508D01*
X0060617Y0054482D01*
X0060911Y0054464D01*
X0061205Y0054454D01*
X0061500Y0054450D01*
X0061795Y0054454D01*
X0062089Y0054464D01*
X0062383Y0054482D01*
X0062677Y0054508D01*
X0062969Y0054540D01*
X0063261Y0054579D01*
X0063552Y0054626D01*
X0063842Y0054680D01*
X0064130Y0054741D01*
X0064417Y0054808D01*
X0064702Y0054883D01*
X0064985Y0054965D01*
X0065266Y0055054D01*
X0065545Y0055149D01*
X0065821Y0055251D01*
X0066095Y0055360D01*
X0066366Y0055476D01*
X0066634Y0055598D01*
X0066899Y0055727D01*
X0067160Y0055862D01*
X0067419Y0056004D01*
X0067674Y0056152D01*
X0067925Y0056306D01*
X0068172Y0056466D01*
X0068415Y0056632D01*
X0068655Y0056804D01*
X0068890Y0056982D01*
X0069120Y0057165D01*
X0069346Y0057354D01*
X0069567Y0057549D01*
X0069784Y0057749D01*
X0069995Y0057954D01*
X0070202Y0058164D01*
X0070403Y0058379D01*
X0070599Y0058600D01*
X0070789Y0058824D01*
X0070974Y0059054D01*
X0071153Y0059288D01*
X0071327Y0059526D01*
X0071494Y0059768D01*
X0071656Y0060014D01*
X0071811Y0060265D01*
X0071961Y0060519D01*
X0072104Y0060776D01*
X0072241Y0061037D01*
X0072371Y0061301D01*
X0072495Y0061569D01*
X0072612Y0061839D01*
X0072723Y0062112D01*
X0072827Y0062388D01*
X0072924Y0062666D01*
X0073014Y0062946D01*
X0073097Y0063229D01*
X0073174Y0063513D01*
X0073244Y0063800D01*
X0073306Y0064087D01*
X0073361Y0064377D01*
X0073410Y0064667D01*
X0073451Y0064959D01*
X0073485Y0065252D01*
X0073512Y0065545D01*
X0073532Y0065839D01*
X0073544Y0066133D01*
X0073550Y0066428D01*
X0073548Y0066723D01*
X0073539Y0067017D01*
X0073523Y0067311D01*
X0073499Y0067605D01*
X0073469Y0067898D01*
X0073431Y0068190D01*
X0073386Y0068481D01*
X0073334Y0068771D01*
X0073275Y0069060D01*
X0073209Y0069347D01*
X0073136Y0069633D01*
X0073056Y0069916D01*
X0072969Y0070198D01*
X0072875Y0070477D01*
X0072774Y0070754D01*
X0072667Y0071028D01*
X0072553Y0071300D01*
X0072432Y0071569D01*
X0072305Y0071834D01*
X0072171Y0072097D01*
X0072031Y0072356D01*
X0071885Y0072612D01*
X0071732Y0072864D01*
X0071574Y0073112D01*
X0071409Y0073356D01*
X0071239Y0073597D01*
X0071062Y0073833D01*
X0070880Y0074064D01*
X0070692Y0074291D01*
X0070499Y0074514D01*
X0070300Y0074731D01*
X0070097Y0074944D01*
X0069888Y0075152D01*
X0069674Y0075354D01*
X0069455Y0075551D01*
X0069231Y0075743D01*
X0069003Y0075929D01*
X0068770Y0076110D01*
X0069309Y0076829D01*
X0069310Y0076830D01*
X0069560Y0076636D01*
X0069806Y0076436D01*
X0070046Y0076230D01*
X0070281Y0076018D01*
X0070511Y0075800D01*
X0070736Y0075577D01*
X0070955Y0075349D01*
X0071169Y0075115D01*
X0071377Y0074876D01*
X0071579Y0074632D01*
X0071774Y0074383D01*
X0071964Y0074129D01*
X0072147Y0073871D01*
X0072324Y0073609D01*
X0072495Y0073342D01*
X0072659Y0073071D01*
X0072816Y0072796D01*
X0072967Y0072518D01*
X0073111Y0072235D01*
X0073247Y0071950D01*
X0073377Y0071661D01*
X0073500Y0071369D01*
X0073615Y0071074D01*
X0073723Y0070777D01*
X0073824Y0070476D01*
X0073918Y0070174D01*
X0074004Y0069869D01*
X0074083Y0069562D01*
X0074154Y0069254D01*
X0074217Y0068944D01*
X0074273Y0068632D01*
X0074322Y0068319D01*
X0074362Y0068005D01*
X0074395Y0067690D01*
X0074420Y0067374D01*
X0074438Y0067058D01*
X0074448Y0066742D01*
X0074450Y0066425D01*
X0074444Y0066108D01*
X0074431Y0065792D01*
X0074409Y0065476D01*
X0074381Y0065161D01*
X0074344Y0064846D01*
X0074300Y0064533D01*
X0074248Y0064220D01*
X0074188Y0063909D01*
X0074121Y0063600D01*
X0074046Y0063292D01*
X0073964Y0062986D01*
X0073875Y0062683D01*
X0073778Y0062381D01*
X0073673Y0062082D01*
X0073561Y0061786D01*
X0073443Y0061492D01*
X0073317Y0061202D01*
X0073184Y0060915D01*
X0073043Y0060630D01*
X0072896Y0060350D01*
X0072743Y0060073D01*
X0072582Y0059800D01*
X0072415Y0059531D01*
X0072241Y0059266D01*
X0072061Y0059006D01*
X0071875Y0058750D01*
X0071682Y0058499D01*
X0071484Y0058252D01*
X0071279Y0058010D01*
X0071069Y0057774D01*
X0070852Y0057542D01*
X0070630Y0057317D01*
X0070403Y0057096D01*
X0070171Y0056881D01*
X0069933Y0056672D01*
X0069690Y0056469D01*
X0069442Y0056271D01*
X0069190Y0056080D01*
X0068933Y0055895D01*
X0068671Y0055717D01*
X0068405Y0055545D01*
X0068136Y0055379D01*
X0067862Y0055220D01*
X0067584Y0055068D01*
X0067303Y0054923D01*
X0067018Y0054784D01*
X0066730Y0054653D01*
X0066438Y0054529D01*
X0066144Y0054411D01*
X0065847Y0054301D01*
X0065548Y0054199D01*
X0065246Y0054104D01*
X0064942Y0054016D01*
X0064635Y0053935D01*
X0064327Y0053862D01*
X0064017Y0053797D01*
X0063706Y0053739D01*
X0063393Y0053689D01*
X0063079Y0053647D01*
X0062765Y0053612D01*
X0062449Y0053585D01*
X0062133Y0053565D01*
X0061817Y0053554D01*
X0061500Y0053550D01*
X0061183Y0053554D01*
X0060867Y0053565D01*
X0060551Y0053585D01*
X0060235Y0053612D01*
X0059921Y0053647D01*
X0059607Y0053689D01*
X0059294Y0053739D01*
X0058983Y0053797D01*
X0058673Y0053862D01*
X0058365Y0053935D01*
X0058058Y0054016D01*
X0057754Y0054104D01*
X0057452Y0054199D01*
X0057153Y0054301D01*
X0056856Y0054411D01*
X0056562Y0054529D01*
X0056270Y0054653D01*
X0055982Y0054784D01*
X0055697Y0054923D01*
X0055416Y0055068D01*
X0055138Y0055220D01*
X0054864Y0055379D01*
X0054595Y0055545D01*
X0054329Y0055717D01*
X0054067Y0055895D01*
X0053810Y0056080D01*
X0053558Y0056271D01*
X0053310Y0056469D01*
X0053067Y0056672D01*
X0052829Y0056881D01*
X0052597Y0057096D01*
X0052370Y0057317D01*
X0052148Y0057542D01*
X0051931Y0057774D01*
X0051721Y0058010D01*
X0051516Y0058252D01*
X0051318Y0058499D01*
X0051125Y0058750D01*
X0050939Y0059006D01*
X0050759Y0059266D01*
X0050585Y0059531D01*
X0050418Y0059800D01*
X0050257Y0060073D01*
X0050104Y0060350D01*
X0049957Y0060630D01*
X0049816Y0060915D01*
X0049683Y0061202D01*
X0049557Y0061492D01*
X0049439Y0061786D01*
X0049327Y0062082D01*
X0049222Y0062381D01*
X0049125Y0062683D01*
X0049036Y0062986D01*
X0048954Y0063292D01*
X0048879Y0063600D01*
X0048812Y0063909D01*
X0048752Y0064220D01*
X0048700Y0064533D01*
X0048656Y0064846D01*
X0048619Y0065161D01*
X0048591Y0065476D01*
X0048569Y0065792D01*
X0048556Y0066108D01*
X0048550Y0066425D01*
X0048552Y0066742D01*
X0048562Y0067058D01*
X0048580Y0067374D01*
X0048605Y0067690D01*
X0048638Y0068005D01*
X0048678Y0068319D01*
X0048727Y0068632D01*
X0048783Y0068944D01*
X0048846Y0069254D01*
X0048917Y0069562D01*
X0048996Y0069869D01*
X0049082Y0070174D01*
X0049176Y0070476D01*
X0049277Y0070777D01*
X0049385Y0071074D01*
X0049500Y0071369D01*
X0049623Y0071661D01*
X0049753Y0071950D01*
X0049889Y0072235D01*
X0050033Y0072518D01*
X0050184Y0072796D01*
X0050341Y0073071D01*
X0050505Y0073342D01*
X0050676Y0073609D01*
X0050853Y0073871D01*
X0051036Y0074129D01*
X0051226Y0074383D01*
X0051421Y0074632D01*
X0051623Y0074876D01*
X0051831Y0075115D01*
X0052045Y0075349D01*
X0052264Y0075577D01*
X0052489Y0075800D01*
X0052719Y0076018D01*
X0052954Y0076230D01*
X0053194Y0076436D01*
X0053440Y0076636D01*
X0053690Y0076830D01*
X0053746Y0076755D01*
X0053498Y0076562D01*
X0053254Y0076363D01*
X0053016Y0076159D01*
X0052782Y0075949D01*
X0052554Y0075733D01*
X0052331Y0075511D01*
X0052113Y0075284D01*
X0051901Y0075052D01*
X0051695Y0074815D01*
X0051494Y0074573D01*
X0051300Y0074325D01*
X0051112Y0074074D01*
X0050930Y0073817D01*
X0050754Y0073557D01*
X0050585Y0073292D01*
X0050422Y0073023D01*
X0050266Y0072750D01*
X0050116Y0072474D01*
X0049974Y0072194D01*
X0049838Y0071910D01*
X0049709Y0071623D01*
X0049587Y0071333D01*
X0049473Y0071041D01*
X0049365Y0070745D01*
X0049265Y0070447D01*
X0049172Y0070147D01*
X0049087Y0069844D01*
X0049009Y0069540D01*
X0048938Y0069234D01*
X0048875Y0068926D01*
X0048819Y0068616D01*
X0048771Y0068306D01*
X0048731Y0067994D01*
X0048698Y0067681D01*
X0048673Y0067368D01*
X0048656Y0067054D01*
X0048646Y0066740D01*
X0048644Y0066425D01*
X0048650Y0066111D01*
X0048663Y0065797D01*
X0048684Y0065483D01*
X0048713Y0065170D01*
X0048749Y0064858D01*
X0048793Y0064547D01*
X0048845Y0064237D01*
X0048904Y0063928D01*
X0048971Y0063621D01*
X0049045Y0063315D01*
X0049126Y0063012D01*
X0049215Y0062710D01*
X0049312Y0062411D01*
X0049415Y0062114D01*
X0049526Y0061820D01*
X0049644Y0061529D01*
X0049769Y0061240D01*
X0049901Y0060955D01*
X0050040Y0060673D01*
X0050186Y0060395D01*
X0050339Y0060120D01*
X0050498Y0059849D01*
X0050664Y0059582D01*
X0050837Y0059319D01*
X0051015Y0059060D01*
X0051200Y0058806D01*
X0051392Y0058557D01*
X0051589Y0058312D01*
X0051792Y0058072D01*
X0052001Y0057837D01*
X0052216Y0057607D01*
X0052436Y0057383D01*
X0052661Y0057164D01*
X0052892Y0056951D01*
X0053128Y0056743D01*
X0053370Y0056541D01*
X0053615Y0056346D01*
X0053866Y0056156D01*
X0054121Y0055972D01*
X0054381Y0055795D01*
X0054645Y0055624D01*
X0054913Y0055460D01*
X0055185Y0055302D01*
X0055460Y0055151D01*
X0055740Y0055007D01*
X0056022Y0054869D01*
X0056308Y0054739D01*
X0056597Y0054615D01*
X0056890Y0054499D01*
X0057184Y0054390D01*
X0057482Y0054288D01*
X0057781Y0054194D01*
X0058084Y0054106D01*
X0058388Y0054026D01*
X0058693Y0053954D01*
X0059001Y0053889D01*
X0059310Y0053832D01*
X0059621Y0053782D01*
X0059932Y0053740D01*
X0060245Y0053705D01*
X0060558Y0053679D01*
X0060872Y0053659D01*
X0061186Y0053648D01*
X0061500Y0053644D01*
X0061814Y0053648D01*
X0062128Y0053659D01*
X0062442Y0053679D01*
X0062755Y0053705D01*
X0063068Y0053740D01*
X0063379Y0053782D01*
X0063690Y0053832D01*
X0063999Y0053889D01*
X0064307Y0053954D01*
X0064612Y0054026D01*
X0064916Y0054106D01*
X0065219Y0054194D01*
X0065518Y0054288D01*
X0065816Y0054390D01*
X0066110Y0054499D01*
X0066403Y0054615D01*
X0066692Y0054739D01*
X0066978Y0054869D01*
X0067260Y0055007D01*
X0067540Y0055151D01*
X0067815Y0055302D01*
X0068087Y0055460D01*
X0068355Y0055624D01*
X0068619Y0055795D01*
X0068879Y0055972D01*
X0069134Y0056156D01*
X0069385Y0056346D01*
X0069630Y0056541D01*
X0069872Y0056743D01*
X0070108Y0056951D01*
X0070339Y0057164D01*
X0070564Y0057383D01*
X0070784Y0057607D01*
X0070999Y0057837D01*
X0071208Y0058072D01*
X0071411Y0058312D01*
X0071608Y0058557D01*
X0071800Y0058806D01*
X0071985Y0059060D01*
X0072163Y0059319D01*
X0072336Y0059582D01*
X0072502Y0059849D01*
X0072661Y0060120D01*
X0072814Y0060395D01*
X0072960Y0060673D01*
X0073099Y0060955D01*
X0073231Y0061240D01*
X0073356Y0061529D01*
X0073474Y0061820D01*
X0073585Y0062114D01*
X0073688Y0062411D01*
X0073785Y0062710D01*
X0073874Y0063012D01*
X0073955Y0063315D01*
X0074029Y0063621D01*
X0074096Y0063928D01*
X0074155Y0064237D01*
X0074207Y0064547D01*
X0074251Y0064858D01*
X0074287Y0065170D01*
X0074316Y0065483D01*
X0074337Y0065797D01*
X0074350Y0066111D01*
X0074356Y0066425D01*
X0074354Y0066740D01*
X0074344Y0067054D01*
X0074327Y0067368D01*
X0074302Y0067681D01*
X0074269Y0067994D01*
X0074229Y0068306D01*
X0074181Y0068616D01*
X0074125Y0068926D01*
X0074062Y0069234D01*
X0073991Y0069540D01*
X0073913Y0069844D01*
X0073828Y0070147D01*
X0073735Y0070447D01*
X0073635Y0070745D01*
X0073527Y0071041D01*
X0073413Y0071333D01*
X0073291Y0071623D01*
X0073162Y0071910D01*
X0073026Y0072194D01*
X0072884Y0072474D01*
X0072734Y0072750D01*
X0072578Y0073023D01*
X0072415Y0073292D01*
X0072246Y0073557D01*
X0072070Y0073817D01*
X0071888Y0074074D01*
X0071700Y0074325D01*
X0071506Y0074573D01*
X0071305Y0074815D01*
X0071099Y0075052D01*
X0070887Y0075284D01*
X0070669Y0075511D01*
X0070446Y0075733D01*
X0070218Y0075949D01*
X0069984Y0076159D01*
X0069746Y0076363D01*
X0069502Y0076562D01*
X0069254Y0076755D01*
X0069197Y0076680D01*
X0069444Y0076488D01*
X0069686Y0076291D01*
X0069923Y0076088D01*
X0070154Y0075879D01*
X0070381Y0075665D01*
X0070603Y0075445D01*
X0070819Y0075220D01*
X0071029Y0074989D01*
X0071234Y0074754D01*
X0071433Y0074513D01*
X0071626Y0074268D01*
X0071812Y0074018D01*
X0071993Y0073764D01*
X0072168Y0073505D01*
X0072336Y0073242D01*
X0072497Y0072975D01*
X0072652Y0072704D01*
X0072801Y0072430D01*
X0072942Y0072152D01*
X0073077Y0071870D01*
X0073205Y0071586D01*
X0073326Y0071298D01*
X0073440Y0071007D01*
X0073546Y0070714D01*
X0073646Y0070418D01*
X0073738Y0070120D01*
X0073823Y0069820D01*
X0073900Y0069517D01*
X0073970Y0069213D01*
X0074033Y0068908D01*
X0074088Y0068601D01*
X0074136Y0068292D01*
X0074176Y0067983D01*
X0074208Y0067672D01*
X0074233Y0067361D01*
X0074250Y0067050D01*
X0074260Y0066738D01*
X0074262Y0066426D01*
X0074256Y0066114D01*
X0074243Y0065802D01*
X0074222Y0065491D01*
X0074194Y0065180D01*
X0074157Y0064870D01*
X0074114Y0064561D01*
X0074063Y0064253D01*
X0074004Y0063946D01*
X0073938Y0063642D01*
X0073864Y0063338D01*
X0073783Y0063037D01*
X0073695Y0062738D01*
X0073599Y0062441D01*
X0073496Y0062146D01*
X0073386Y0061854D01*
X0073269Y0061565D01*
X0073145Y0061278D01*
X0073014Y0060995D01*
X0072876Y0060715D01*
X0072731Y0060439D01*
X0072579Y0060166D01*
X0072421Y0059897D01*
X0072256Y0059632D01*
X0072085Y0059371D01*
X0071908Y0059115D01*
X0071724Y0058862D01*
X0071534Y0058615D01*
X0071339Y0058372D01*
X0071137Y0058133D01*
X0070929Y0057900D01*
X0070716Y0057672D01*
X0070498Y0057450D01*
X0070274Y0057232D01*
X0070045Y0057021D01*
X0069810Y0056815D01*
X0069571Y0056614D01*
X0069327Y0056420D01*
X0069078Y0056232D01*
X0068825Y0056049D01*
X0068567Y0055873D01*
X0068305Y0055704D01*
X0068039Y0055541D01*
X0067769Y0055384D01*
X0067495Y0055234D01*
X0067218Y0055091D01*
X0066938Y0054954D01*
X0066654Y0054825D01*
X0066367Y0054702D01*
X0066077Y0054587D01*
X0065784Y0054479D01*
X0065489Y0054377D01*
X0065191Y0054283D01*
X0064891Y0054197D01*
X0064590Y0054118D01*
X0064286Y0054046D01*
X0063981Y0053981D01*
X0063674Y0053924D01*
X0063366Y0053875D01*
X0063056Y0053833D01*
X0062746Y0053799D01*
X0062435Y0053772D01*
X0062124Y0053753D01*
X0061812Y0053742D01*
X0061500Y0053738D01*
X0061188Y0053742D01*
X0060876Y0053753D01*
X0060565Y0053772D01*
X0060254Y0053799D01*
X0059944Y0053833D01*
X0059634Y0053875D01*
X0059326Y0053924D01*
X0059019Y0053981D01*
X0058714Y0054046D01*
X0058410Y0054118D01*
X0058109Y0054197D01*
X0057809Y0054283D01*
X0057511Y0054377D01*
X0057216Y0054479D01*
X0056923Y0054587D01*
X0056633Y0054702D01*
X0056346Y0054825D01*
X0056062Y0054954D01*
X0055782Y0055091D01*
X0055505Y0055234D01*
X0055231Y0055384D01*
X0054961Y0055541D01*
X0054695Y0055704D01*
X0054433Y0055873D01*
X0054175Y0056049D01*
X0053922Y0056232D01*
X0053673Y0056420D01*
X0053429Y0056614D01*
X0053190Y0056815D01*
X0052955Y0057021D01*
X0052726Y0057232D01*
X0052502Y0057450D01*
X0052284Y0057672D01*
X0052071Y0057900D01*
X0051863Y0058133D01*
X0051661Y0058372D01*
X0051466Y0058615D01*
X0051276Y0058862D01*
X0051092Y0059115D01*
X0050915Y0059371D01*
X0050744Y0059632D01*
X0050579Y0059897D01*
X0050421Y0060166D01*
X0050269Y0060439D01*
X0050124Y0060715D01*
X0049986Y0060995D01*
X0049855Y0061278D01*
X0049731Y0061565D01*
X0049614Y0061854D01*
X0049504Y0062146D01*
X0049401Y0062441D01*
X0049305Y0062738D01*
X0049217Y0063037D01*
X0049136Y0063338D01*
X0049062Y0063642D01*
X0048996Y0063946D01*
X0048937Y0064253D01*
X0048886Y0064561D01*
X0048843Y0064870D01*
X0048806Y0065180D01*
X0048778Y0065491D01*
X0048757Y0065802D01*
X0048744Y0066114D01*
X0048738Y0066426D01*
X0048740Y0066738D01*
X0048750Y0067050D01*
X0048767Y0067361D01*
X0048792Y0067672D01*
X0048824Y0067983D01*
X0048864Y0068292D01*
X0048912Y0068601D01*
X0048967Y0068908D01*
X0049030Y0069213D01*
X0049100Y0069517D01*
X0049177Y0069820D01*
X0049262Y0070120D01*
X0049354Y0070418D01*
X0049454Y0070714D01*
X0049560Y0071007D01*
X0049674Y0071298D01*
X0049795Y0071586D01*
X0049923Y0071870D01*
X0050058Y0072152D01*
X0050199Y0072430D01*
X0050348Y0072704D01*
X0050503Y0072975D01*
X0050664Y0073242D01*
X0050832Y0073505D01*
X0051007Y0073764D01*
X0051188Y0074018D01*
X0051374Y0074268D01*
X0051567Y0074513D01*
X0051766Y0074754D01*
X0051971Y0074989D01*
X0052181Y0075220D01*
X0052397Y0075445D01*
X0052619Y0075665D01*
X0052846Y0075879D01*
X0053077Y0076088D01*
X0053314Y0076291D01*
X0053556Y0076488D01*
X0053803Y0076680D01*
X0053859Y0076604D01*
X0053614Y0076414D01*
X0053374Y0076219D01*
X0053139Y0076017D01*
X0052909Y0075810D01*
X0052684Y0075597D01*
X0052464Y0075379D01*
X0052250Y0075155D01*
X0052041Y0074926D01*
X0051838Y0074693D01*
X0051640Y0074454D01*
X0051449Y0074211D01*
X0051263Y0073962D01*
X0051084Y0073710D01*
X0050911Y0073453D01*
X0050744Y0073192D01*
X0050583Y0072927D01*
X0050430Y0072658D01*
X0050282Y0072386D01*
X0050142Y0072110D01*
X0050008Y0071830D01*
X0049881Y0071548D01*
X0049761Y0071262D01*
X0049648Y0070974D01*
X0049542Y0070683D01*
X0049444Y0070389D01*
X0049352Y0070093D01*
X0049268Y0069795D01*
X0049191Y0069495D01*
X0049122Y0069193D01*
X0049059Y0068890D01*
X0049005Y0068585D01*
X0048957Y0068279D01*
X0048918Y0067971D01*
X0048886Y0067663D01*
X0048861Y0067355D01*
X0048844Y0067045D01*
X0048834Y0066736D01*
X0048832Y0066426D01*
X0048838Y0066116D01*
X0048851Y0065807D01*
X0048872Y0065498D01*
X0048900Y0065189D01*
X0048936Y0064882D01*
X0048979Y0064575D01*
X0049030Y0064269D01*
X0049088Y0063965D01*
X0049154Y0063662D01*
X0049227Y0063361D01*
X0049307Y0063062D01*
X0049395Y0062765D01*
X0049490Y0062470D01*
X0049592Y0062178D01*
X0049701Y0061888D01*
X0049818Y0061601D01*
X0049941Y0061317D01*
X0050071Y0061036D01*
X0050208Y0060758D01*
X0050352Y0060484D01*
X0050502Y0060213D01*
X0050659Y0059946D01*
X0050823Y0059683D01*
X0050993Y0059424D01*
X0051169Y0059169D01*
X0051351Y0058918D01*
X0051540Y0058673D01*
X0051734Y0058431D01*
X0051934Y0058195D01*
X0052140Y0057964D01*
X0052352Y0057737D01*
X0052569Y0057516D01*
X0052791Y0057301D01*
X0053018Y0057090D01*
X0053251Y0056886D01*
X0053489Y0056687D01*
X0053731Y0056494D01*
X0053978Y0056307D01*
X0054229Y0056126D01*
X0054485Y0055952D01*
X0054745Y0055783D01*
X0055009Y0055621D01*
X0055277Y0055466D01*
X0055549Y0055317D01*
X0055824Y0055175D01*
X0056103Y0055039D01*
X0056384Y0054911D01*
X0056669Y0054789D01*
X0056957Y0054675D01*
X0057248Y0054567D01*
X0057541Y0054467D01*
X0057836Y0054373D01*
X0058134Y0054287D01*
X0058433Y0054209D01*
X0058735Y0054138D01*
X0059038Y0054074D01*
X0059342Y0054017D01*
X0059648Y0053968D01*
X0059955Y0053927D01*
X0060263Y0053893D01*
X0060572Y0053866D01*
X0060881Y0053847D01*
X0061190Y0053836D01*
X0061500Y0053832D01*
X0061810Y0053836D01*
X0062119Y0053847D01*
X0062428Y0053866D01*
X0062737Y0053893D01*
X0063045Y0053927D01*
X0063352Y0053968D01*
X0063658Y0054017D01*
X0063962Y0054074D01*
X0064265Y0054138D01*
X0064567Y0054209D01*
X0064866Y0054287D01*
X0065164Y0054373D01*
X0065459Y0054467D01*
X0065752Y0054567D01*
X0066043Y0054675D01*
X0066331Y0054789D01*
X0066616Y0054911D01*
X0066897Y0055039D01*
X0067176Y0055175D01*
X0067451Y0055317D01*
X0067723Y0055466D01*
X0067991Y0055621D01*
X0068255Y0055783D01*
X0068515Y0055952D01*
X0068771Y0056126D01*
X0069022Y0056307D01*
X0069269Y0056494D01*
X0069511Y0056687D01*
X0069749Y0056886D01*
X0069982Y0057090D01*
X0070209Y0057301D01*
X0070431Y0057516D01*
X0070648Y0057737D01*
X0070860Y0057964D01*
X0071066Y0058195D01*
X0071266Y0058431D01*
X0071460Y0058673D01*
X0071649Y0058918D01*
X0071831Y0059169D01*
X0072007Y0059424D01*
X0072177Y0059683D01*
X0072341Y0059946D01*
X0072498Y0060213D01*
X0072648Y0060484D01*
X0072792Y0060758D01*
X0072929Y0061036D01*
X0073059Y0061317D01*
X0073182Y0061601D01*
X0073299Y0061888D01*
X0073408Y0062178D01*
X0073510Y0062470D01*
X0073605Y0062765D01*
X0073693Y0063062D01*
X0073773Y0063361D01*
X0073846Y0063662D01*
X0073912Y0063965D01*
X0073970Y0064269D01*
X0074021Y0064575D01*
X0074064Y0064882D01*
X0074100Y0065189D01*
X0074128Y0065498D01*
X0074149Y0065807D01*
X0074162Y0066116D01*
X0074168Y0066426D01*
X0074166Y0066736D01*
X0074156Y0067045D01*
X0074139Y0067355D01*
X0074114Y0067663D01*
X0074082Y0067971D01*
X0074043Y0068279D01*
X0073995Y0068585D01*
X0073941Y0068890D01*
X0073878Y0069193D01*
X0073809Y0069495D01*
X0073732Y0069795D01*
X0073648Y0070093D01*
X0073556Y0070389D01*
X0073458Y0070683D01*
X0073352Y0070974D01*
X0073239Y0071262D01*
X0073119Y0071548D01*
X0072992Y0071830D01*
X0072858Y0072110D01*
X0072718Y0072386D01*
X0072570Y0072658D01*
X0072417Y0072927D01*
X0072256Y0073192D01*
X0072089Y0073453D01*
X0071916Y0073710D01*
X0071737Y0073962D01*
X0071551Y0074211D01*
X0071360Y0074454D01*
X0071162Y0074693D01*
X0070959Y0074926D01*
X0070750Y0075155D01*
X0070536Y0075379D01*
X0070316Y0075597D01*
X0070091Y0075810D01*
X0069861Y0076017D01*
X0069626Y0076219D01*
X0069386Y0076414D01*
X0069141Y0076604D01*
X0069084Y0076529D01*
X0069327Y0076341D01*
X0069566Y0076146D01*
X0069799Y0075946D01*
X0070027Y0075741D01*
X0070251Y0075529D01*
X0070469Y0075313D01*
X0070682Y0075091D01*
X0070889Y0074864D01*
X0071091Y0074632D01*
X0071287Y0074395D01*
X0071477Y0074153D01*
X0071661Y0073907D01*
X0071839Y0073656D01*
X0072011Y0073401D01*
X0072176Y0073142D01*
X0072336Y0072879D01*
X0072488Y0072612D01*
X0072635Y0072342D01*
X0072774Y0072068D01*
X0072907Y0071791D01*
X0073033Y0071510D01*
X0073152Y0071227D01*
X0073264Y0070940D01*
X0073369Y0070651D01*
X0073467Y0070360D01*
X0073558Y0070066D01*
X0073641Y0069770D01*
X0073718Y0069473D01*
X0073787Y0069173D01*
X0073848Y0068872D01*
X0073903Y0068569D01*
X0073949Y0068265D01*
X0073989Y0067960D01*
X0074021Y0067655D01*
X0074045Y0067348D01*
X0074062Y0067041D01*
X0074072Y0066734D01*
X0074074Y0066426D01*
X0074068Y0066119D01*
X0074055Y0065812D01*
X0074035Y0065505D01*
X0074006Y0065199D01*
X0073971Y0064893D01*
X0073928Y0064589D01*
X0073877Y0064286D01*
X0073820Y0063984D01*
X0073754Y0063683D01*
X0073682Y0063384D01*
X0073602Y0063088D01*
X0073515Y0062793D01*
X0073421Y0062500D01*
X0073319Y0062210D01*
X0073211Y0061922D01*
X0073096Y0061637D01*
X0072973Y0061355D01*
X0072844Y0061076D01*
X0072708Y0060800D01*
X0072565Y0060528D01*
X0072416Y0060259D01*
X0072260Y0059994D01*
X0072098Y0059733D01*
X0071929Y0059476D01*
X0071754Y0059223D01*
X0071573Y0058975D01*
X0071386Y0058731D01*
X0071193Y0058491D01*
X0070995Y0058257D01*
X0070790Y0058027D01*
X0070580Y0057802D01*
X0070365Y0057583D01*
X0070144Y0057369D01*
X0069919Y0057160D01*
X0069688Y0056957D01*
X0069452Y0056760D01*
X0069211Y0056568D01*
X0068966Y0056383D01*
X0068717Y0056203D01*
X0068463Y0056030D01*
X0068205Y0055863D01*
X0067943Y0055702D01*
X0067677Y0055548D01*
X0067407Y0055400D01*
X0067134Y0055259D01*
X0066857Y0055124D01*
X0066578Y0054997D01*
X0066295Y0054876D01*
X0066009Y0054762D01*
X0065721Y0054656D01*
X0065430Y0054556D01*
X0065137Y0054463D01*
X0064841Y0054378D01*
X0064544Y0054300D01*
X0064245Y0054229D01*
X0063944Y0054166D01*
X0063642Y0054110D01*
X0063338Y0054061D01*
X0063033Y0054020D01*
X0062728Y0053986D01*
X0062422Y0053960D01*
X0062115Y0053941D01*
X0061807Y0053930D01*
X0061500Y0053926D01*
X0061193Y0053930D01*
X0060885Y0053941D01*
X0060578Y0053960D01*
X0060272Y0053986D01*
X0059967Y0054020D01*
X0059662Y0054061D01*
X0059358Y0054110D01*
X0059056Y0054166D01*
X0058755Y0054229D01*
X0058456Y0054300D01*
X0058159Y0054378D01*
X0057863Y0054463D01*
X0057570Y0054556D01*
X0057279Y0054656D01*
X0056991Y0054762D01*
X0056705Y0054876D01*
X0056422Y0054997D01*
X0056143Y0055124D01*
X0055866Y0055259D01*
X0055593Y0055400D01*
X0055323Y0055548D01*
X0055057Y0055702D01*
X0054795Y0055863D01*
X0054537Y0056030D01*
X0054283Y0056203D01*
X0054034Y0056383D01*
X0053789Y0056568D01*
X0053548Y0056760D01*
X0053312Y0056957D01*
X0053081Y0057160D01*
X0052856Y0057369D01*
X0052635Y0057583D01*
X0052420Y0057802D01*
X0052210Y0058027D01*
X0052005Y0058257D01*
X0051807Y0058491D01*
X0051614Y0058731D01*
X0051427Y0058975D01*
X0051246Y0059223D01*
X0051071Y0059476D01*
X0050902Y0059733D01*
X0050740Y0059994D01*
X0050584Y0060259D01*
X0050435Y0060528D01*
X0050292Y0060800D01*
X0050156Y0061076D01*
X0050027Y0061355D01*
X0049904Y0061637D01*
X0049789Y0061922D01*
X0049681Y0062210D01*
X0049579Y0062500D01*
X0049485Y0062793D01*
X0049398Y0063088D01*
X0049318Y0063384D01*
X0049246Y0063683D01*
X0049180Y0063984D01*
X0049123Y0064286D01*
X0049072Y0064589D01*
X0049029Y0064893D01*
X0048994Y0065199D01*
X0048965Y0065505D01*
X0048945Y0065812D01*
X0048932Y0066119D01*
X0048926Y0066426D01*
X0048928Y0066734D01*
X0048938Y0067041D01*
X0048955Y0067348D01*
X0048979Y0067655D01*
X0049011Y0067960D01*
X0049051Y0068265D01*
X0049097Y0068569D01*
X0049152Y0068872D01*
X0049213Y0069173D01*
X0049282Y0069473D01*
X0049359Y0069770D01*
X0049442Y0070066D01*
X0049533Y0070360D01*
X0049631Y0070651D01*
X0049736Y0070940D01*
X0049848Y0071227D01*
X0049967Y0071510D01*
X0050093Y0071791D01*
X0050226Y0072068D01*
X0050365Y0072342D01*
X0050512Y0072612D01*
X0050664Y0072879D01*
X0050824Y0073142D01*
X0050989Y0073401D01*
X0051161Y0073656D01*
X0051339Y0073907D01*
X0051523Y0074153D01*
X0051713Y0074395D01*
X0051909Y0074632D01*
X0052111Y0074864D01*
X0052318Y0075091D01*
X0052531Y0075313D01*
X0052749Y0075529D01*
X0052973Y0075741D01*
X0053201Y0075946D01*
X0053434Y0076146D01*
X0053673Y0076341D01*
X0053916Y0076529D01*
X0053972Y0076454D01*
X0053731Y0076267D01*
X0053494Y0076074D01*
X0053263Y0075875D01*
X0053036Y0075671D01*
X0052814Y0075462D01*
X0052598Y0075247D01*
X0052387Y0075026D01*
X0052181Y0074801D01*
X0051981Y0074571D01*
X0051786Y0074335D01*
X0051598Y0074096D01*
X0051415Y0073851D01*
X0051238Y0073602D01*
X0051068Y0073349D01*
X0050903Y0073092D01*
X0050745Y0072831D01*
X0050594Y0072566D01*
X0050449Y0072298D01*
X0050310Y0072026D01*
X0050178Y0071751D01*
X0050053Y0071472D01*
X0049935Y0071191D01*
X0049824Y0070907D01*
X0049720Y0070620D01*
X0049622Y0070331D01*
X0049532Y0070039D01*
X0049449Y0069746D01*
X0049374Y0069450D01*
X0049305Y0069153D01*
X0049244Y0068854D01*
X0049190Y0068553D01*
X0049144Y0068252D01*
X0049104Y0067949D01*
X0049073Y0067646D01*
X0049048Y0067341D01*
X0049032Y0067037D01*
X0049022Y0066732D01*
X0049020Y0066427D01*
X0049026Y0066122D01*
X0049039Y0065817D01*
X0049059Y0065512D01*
X0049087Y0065208D01*
X0049122Y0064905D01*
X0049165Y0064603D01*
X0049215Y0064302D01*
X0049272Y0064002D01*
X0049337Y0063704D01*
X0049409Y0063408D01*
X0049488Y0063113D01*
X0049575Y0062820D01*
X0049668Y0062530D01*
X0049769Y0062242D01*
X0049877Y0061956D01*
X0049991Y0061673D01*
X0050113Y0061393D01*
X0050241Y0061116D01*
X0050376Y0060843D01*
X0050517Y0060573D01*
X0050666Y0060306D01*
X0050820Y0060043D01*
X0050981Y0059784D01*
X0051149Y0059528D01*
X0051322Y0059277D01*
X0051502Y0059031D01*
X0051688Y0058789D01*
X0051879Y0058551D01*
X0052076Y0058318D01*
X0052279Y0058090D01*
X0052488Y0057867D01*
X0052701Y0057649D01*
X0052920Y0057437D01*
X0053144Y0057230D01*
X0053374Y0057028D01*
X0053608Y0056832D01*
X0053846Y0056642D01*
X0054090Y0056458D01*
X0054337Y0056280D01*
X0054589Y0056108D01*
X0054846Y0055942D01*
X0055106Y0055783D01*
X0055370Y0055629D01*
X0055637Y0055483D01*
X0055908Y0055343D01*
X0056183Y0055209D01*
X0056460Y0055083D01*
X0056741Y0054963D01*
X0057025Y0054850D01*
X0057311Y0054744D01*
X0057599Y0054645D01*
X0057890Y0054553D01*
X0058184Y0054469D01*
X0058479Y0054391D01*
X0058776Y0054321D01*
X0059074Y0054258D01*
X0059374Y0054202D01*
X0059676Y0054154D01*
X0059978Y0054113D01*
X0060281Y0054080D01*
X0060585Y0054054D01*
X0060890Y0054035D01*
X0061195Y0054024D01*
X0061500Y0054020D01*
X0061805Y0054024D01*
X0062110Y0054035D01*
X0062415Y0054054D01*
X0062719Y0054080D01*
X0063022Y0054113D01*
X0063324Y0054154D01*
X0063626Y0054202D01*
X0063926Y0054258D01*
X0064224Y0054321D01*
X0064521Y0054391D01*
X0064816Y0054469D01*
X0065110Y0054553D01*
X0065401Y0054645D01*
X0065689Y0054744D01*
X0065975Y0054850D01*
X0066259Y0054963D01*
X0066540Y0055083D01*
X0066817Y0055209D01*
X0067092Y0055343D01*
X0067363Y0055483D01*
X0067630Y0055629D01*
X0067894Y0055783D01*
X0068154Y0055942D01*
X0068411Y0056108D01*
X0068663Y0056280D01*
X0068910Y0056458D01*
X0069154Y0056642D01*
X0069392Y0056832D01*
X0069626Y0057028D01*
X0069856Y0057230D01*
X0070080Y0057437D01*
X0070299Y0057649D01*
X0070512Y0057867D01*
X0070721Y0058090D01*
X0070924Y0058318D01*
X0071121Y0058551D01*
X0071312Y0058789D01*
X0071498Y0059031D01*
X0071678Y0059277D01*
X0071851Y0059528D01*
X0072019Y0059784D01*
X0072180Y0060043D01*
X0072334Y0060306D01*
X0072483Y0060573D01*
X0072624Y0060843D01*
X0072759Y0061116D01*
X0072887Y0061393D01*
X0073009Y0061673D01*
X0073123Y0061956D01*
X0073231Y0062242D01*
X0073332Y0062530D01*
X0073425Y0062820D01*
X0073512Y0063113D01*
X0073591Y0063408D01*
X0073663Y0063704D01*
X0073728Y0064002D01*
X0073785Y0064302D01*
X0073835Y0064603D01*
X0073878Y0064905D01*
X0073913Y0065208D01*
X0073941Y0065512D01*
X0073961Y0065817D01*
X0073974Y0066122D01*
X0073980Y0066427D01*
X0073978Y0066732D01*
X0073968Y0067037D01*
X0073952Y0067341D01*
X0073927Y0067646D01*
X0073896Y0067949D01*
X0073856Y0068252D01*
X0073810Y0068553D01*
X0073756Y0068854D01*
X0073695Y0069153D01*
X0073626Y0069450D01*
X0073551Y0069746D01*
X0073468Y0070039D01*
X0073378Y0070331D01*
X0073280Y0070620D01*
X0073176Y0070907D01*
X0073065Y0071191D01*
X0072947Y0071472D01*
X0072822Y0071751D01*
X0072690Y0072026D01*
X0072551Y0072298D01*
X0072406Y0072566D01*
X0072255Y0072831D01*
X0072097Y0073092D01*
X0071932Y0073349D01*
X0071762Y0073602D01*
X0071585Y0073851D01*
X0071402Y0074096D01*
X0071214Y0074335D01*
X0071019Y0074571D01*
X0070819Y0074801D01*
X0070613Y0075026D01*
X0070402Y0075247D01*
X0070186Y0075462D01*
X0069964Y0075671D01*
X0069737Y0075875D01*
X0069506Y0076074D01*
X0069269Y0076267D01*
X0069028Y0076454D01*
X0068972Y0076379D01*
X0069211Y0076193D01*
X0069446Y0076002D01*
X0069675Y0075805D01*
X0069900Y0075602D01*
X0070121Y0075394D01*
X0070335Y0075180D01*
X0070545Y0074962D01*
X0070749Y0074738D01*
X0070948Y0074510D01*
X0071141Y0074276D01*
X0071328Y0074038D01*
X0071509Y0073796D01*
X0071685Y0073549D01*
X0071854Y0073298D01*
X0072017Y0073042D01*
X0072174Y0072783D01*
X0072324Y0072520D01*
X0072468Y0072254D01*
X0072606Y0071984D01*
X0072737Y0071711D01*
X0072861Y0071435D01*
X0072978Y0071155D01*
X0073088Y0070873D01*
X0073192Y0070589D01*
X0073288Y0070302D01*
X0073378Y0070012D01*
X0073460Y0069721D01*
X0073535Y0069428D01*
X0073603Y0069132D01*
X0073664Y0068836D01*
X0073717Y0068538D01*
X0073763Y0068238D01*
X0073802Y0067938D01*
X0073834Y0067637D01*
X0073858Y0067335D01*
X0073875Y0067032D01*
X0073884Y0066730D01*
X0073886Y0066427D01*
X0073880Y0066124D01*
X0073867Y0065822D01*
X0073847Y0065519D01*
X0073819Y0065218D01*
X0073784Y0064917D01*
X0073742Y0064617D01*
X0073692Y0064318D01*
X0073635Y0064021D01*
X0073571Y0063725D01*
X0073500Y0063431D01*
X0073421Y0063138D01*
X0073335Y0062848D01*
X0073242Y0062559D01*
X0073143Y0062274D01*
X0073036Y0061990D01*
X0072922Y0061710D01*
X0072802Y0061432D01*
X0072674Y0061157D01*
X0072540Y0060885D01*
X0072400Y0060617D01*
X0072253Y0060352D01*
X0072099Y0060091D01*
X0071939Y0059834D01*
X0071773Y0059581D01*
X0071601Y0059332D01*
X0071423Y0059087D01*
X0071238Y0058846D01*
X0071048Y0058611D01*
X0070853Y0058380D01*
X0070651Y0058153D01*
X0070445Y0057932D01*
X0070232Y0057716D01*
X0070015Y0057505D01*
X0069793Y0057300D01*
X0069565Y0057100D01*
X0069333Y0056905D01*
X0069096Y0056717D01*
X0068854Y0056534D01*
X0068609Y0056357D01*
X0068358Y0056186D01*
X0068104Y0056022D01*
X0067846Y0055863D01*
X0067584Y0055711D01*
X0067319Y0055566D01*
X0067050Y0055427D01*
X0066777Y0055294D01*
X0066502Y0055169D01*
X0066223Y0055050D01*
X0065942Y0054938D01*
X0065658Y0054833D01*
X0065371Y0054734D01*
X0065082Y0054643D01*
X0064791Y0054559D01*
X0064498Y0054482D01*
X0064204Y0054413D01*
X0063907Y0054350D01*
X0063610Y0054295D01*
X0063311Y0054247D01*
X0063011Y0054206D01*
X0062709Y0054173D01*
X0062408Y0054147D01*
X0062105Y0054129D01*
X0061803Y0054118D01*
X0061500Y0054114D01*
X0061197Y0054118D01*
X0060895Y0054129D01*
X0060592Y0054147D01*
X0060291Y0054173D01*
X0059989Y0054206D01*
X0059689Y0054247D01*
X0059390Y0054295D01*
X0059093Y0054350D01*
X0058796Y0054413D01*
X0058502Y0054482D01*
X0058209Y0054559D01*
X0057918Y0054643D01*
X0057629Y0054734D01*
X0057342Y0054833D01*
X0057058Y0054938D01*
X0056777Y0055050D01*
X0056498Y0055169D01*
X0056223Y0055294D01*
X0055950Y0055427D01*
X0055681Y0055566D01*
X0055416Y0055711D01*
X0055154Y0055863D01*
X0054896Y0056022D01*
X0054642Y0056186D01*
X0054391Y0056357D01*
X0054146Y0056534D01*
X0053904Y0056717D01*
X0053667Y0056905D01*
X0053435Y0057100D01*
X0053207Y0057300D01*
X0052985Y0057505D01*
X0052768Y0057716D01*
X0052555Y0057932D01*
X0052349Y0058153D01*
X0052147Y0058380D01*
X0051952Y0058611D01*
X0051762Y0058846D01*
X0051577Y0059087D01*
X0051399Y0059332D01*
X0051227Y0059581D01*
X0051061Y0059834D01*
X0050901Y0060091D01*
X0050747Y0060352D01*
X0050600Y0060617D01*
X0050460Y0060885D01*
X0050326Y0061157D01*
X0050198Y0061432D01*
X0050078Y0061710D01*
X0049964Y0061990D01*
X0049857Y0062274D01*
X0049758Y0062559D01*
X0049665Y0062848D01*
X0049579Y0063138D01*
X0049500Y0063431D01*
X0049429Y0063725D01*
X0049365Y0064021D01*
X0049308Y0064318D01*
X0049258Y0064617D01*
X0049216Y0064917D01*
X0049181Y0065218D01*
X0049153Y0065519D01*
X0049133Y0065822D01*
X0049120Y0066124D01*
X0049114Y0066427D01*
X0049116Y0066730D01*
X0049125Y0067032D01*
X0049142Y0067335D01*
X0049166Y0067637D01*
X0049198Y0067938D01*
X0049237Y0068238D01*
X0049283Y0068538D01*
X0049336Y0068836D01*
X0049397Y0069132D01*
X0049465Y0069428D01*
X0049540Y0069721D01*
X0049622Y0070012D01*
X0049712Y0070302D01*
X0049808Y0070589D01*
X0049912Y0070873D01*
X0050022Y0071155D01*
X0050139Y0071435D01*
X0050263Y0071711D01*
X0050394Y0071984D01*
X0050532Y0072254D01*
X0050676Y0072520D01*
X0050826Y0072783D01*
X0050983Y0073042D01*
X0051146Y0073298D01*
X0051315Y0073549D01*
X0051491Y0073796D01*
X0051672Y0074038D01*
X0051859Y0074276D01*
X0052052Y0074510D01*
X0052251Y0074738D01*
X0052455Y0074962D01*
X0052665Y0075180D01*
X0052879Y0075394D01*
X0053100Y0075602D01*
X0053325Y0075805D01*
X0053554Y0076002D01*
X0053789Y0076193D01*
X0054028Y0076379D01*
X0054085Y0076304D01*
X0053847Y0076119D01*
X0053615Y0075929D01*
X0053386Y0075734D01*
X0053163Y0075533D01*
X0052945Y0075326D01*
X0052731Y0075114D01*
X0052523Y0074897D01*
X0052321Y0074675D01*
X0052124Y0074448D01*
X0051932Y0074217D01*
X0051746Y0073981D01*
X0051566Y0073740D01*
X0051392Y0073495D01*
X0051224Y0073246D01*
X0051062Y0072992D01*
X0050907Y0072735D01*
X0050758Y0072474D01*
X0050615Y0072210D01*
X0050478Y0071942D01*
X0050349Y0071671D01*
X0050226Y0071397D01*
X0050109Y0071120D01*
X0050000Y0070840D01*
X0049897Y0070557D01*
X0049801Y0070273D01*
X0049713Y0069985D01*
X0049631Y0069696D01*
X0049556Y0069405D01*
X0049489Y0069112D01*
X0049428Y0068818D01*
X0049375Y0068522D01*
X0049330Y0068225D01*
X0049291Y0067927D01*
X0049260Y0067628D01*
X0049236Y0067328D01*
X0049219Y0067028D01*
X0049210Y0066728D01*
X0049208Y0066427D01*
X0049214Y0066127D01*
X0049226Y0065826D01*
X0049247Y0065527D01*
X0049274Y0065227D01*
X0049309Y0064929D01*
X0049351Y0064631D01*
X0049400Y0064335D01*
X0049457Y0064040D01*
X0049521Y0063746D01*
X0049591Y0063454D01*
X0049669Y0063164D01*
X0049755Y0062875D01*
X0049847Y0062589D01*
X0049946Y0062305D01*
X0050052Y0062024D01*
X0050165Y0061746D01*
X0050284Y0061470D01*
X0050411Y0061197D01*
X0050544Y0060928D01*
X0050683Y0060662D01*
X0050829Y0060399D01*
X0050981Y0060140D01*
X0051140Y0059884D01*
X0051305Y0059633D01*
X0051476Y0059386D01*
X0051653Y0059143D01*
X0051836Y0058904D01*
X0052024Y0058670D01*
X0052218Y0058441D01*
X0052418Y0058217D01*
X0052623Y0057997D01*
X0052834Y0057783D01*
X0053050Y0057573D01*
X0053270Y0057369D01*
X0053496Y0057171D01*
X0053727Y0056978D01*
X0053962Y0056791D01*
X0054201Y0056609D01*
X0054445Y0056434D01*
X0054694Y0056264D01*
X0054946Y0056101D01*
X0055202Y0055944D01*
X0055462Y0055793D01*
X0055726Y0055649D01*
X0055993Y0055511D01*
X0056263Y0055379D01*
X0056536Y0055255D01*
X0056813Y0055137D01*
X0057092Y0055026D01*
X0057374Y0054921D01*
X0057658Y0054824D01*
X0057945Y0054733D01*
X0058234Y0054650D01*
X0058524Y0054574D01*
X0058817Y0054504D01*
X0059111Y0054442D01*
X0059406Y0054388D01*
X0059703Y0054340D01*
X0060001Y0054300D01*
X0060300Y0054267D01*
X0060599Y0054241D01*
X0060899Y0054223D01*
X0061199Y0054212D01*
X0061500Y0054208D01*
X0061801Y0054212D01*
X0062101Y0054223D01*
X0062401Y0054241D01*
X0062700Y0054267D01*
X0062999Y0054300D01*
X0063297Y0054340D01*
X0063594Y0054388D01*
X0063889Y0054442D01*
X0064183Y0054504D01*
X0064476Y0054574D01*
X0064766Y0054650D01*
X0065055Y0054733D01*
X0065342Y0054824D01*
X0065626Y0054921D01*
X0065908Y0055026D01*
X0066187Y0055137D01*
X0066464Y0055255D01*
X0066737Y0055379D01*
X0067007Y0055511D01*
X0067274Y0055649D01*
X0067538Y0055793D01*
X0067798Y0055944D01*
X0068054Y0056101D01*
X0068306Y0056264D01*
X0068555Y0056434D01*
X0068799Y0056609D01*
X0069038Y0056791D01*
X0069273Y0056978D01*
X0069504Y0057171D01*
X0069730Y0057369D01*
X0069950Y0057573D01*
X0070166Y0057783D01*
X0070377Y0057997D01*
X0070582Y0058217D01*
X0070782Y0058441D01*
X0070976Y0058670D01*
X0071164Y0058904D01*
X0071347Y0059143D01*
X0071524Y0059386D01*
X0071695Y0059633D01*
X0071860Y0059884D01*
X0072019Y0060140D01*
X0072171Y0060399D01*
X0072317Y0060662D01*
X0072456Y0060928D01*
X0072589Y0061197D01*
X0072716Y0061470D01*
X0072835Y0061746D01*
X0072948Y0062024D01*
X0073054Y0062305D01*
X0073153Y0062589D01*
X0073245Y0062875D01*
X0073331Y0063164D01*
X0073409Y0063454D01*
X0073479Y0063746D01*
X0073543Y0064040D01*
X0073600Y0064335D01*
X0073649Y0064631D01*
X0073691Y0064929D01*
X0073726Y0065227D01*
X0073753Y0065527D01*
X0073774Y0065826D01*
X0073786Y0066127D01*
X0073792Y0066427D01*
X0073790Y0066728D01*
X0073781Y0067028D01*
X0073764Y0067328D01*
X0073740Y0067628D01*
X0073709Y0067927D01*
X0073670Y0068225D01*
X0073625Y0068522D01*
X0073572Y0068818D01*
X0073511Y0069112D01*
X0073444Y0069405D01*
X0073369Y0069696D01*
X0073287Y0069985D01*
X0073199Y0070273D01*
X0073103Y0070557D01*
X0073000Y0070840D01*
X0072891Y0071120D01*
X0072774Y0071397D01*
X0072651Y0071671D01*
X0072522Y0071942D01*
X0072385Y0072210D01*
X0072242Y0072474D01*
X0072093Y0072735D01*
X0071938Y0072992D01*
X0071776Y0073246D01*
X0071608Y0073495D01*
X0071434Y0073740D01*
X0071254Y0073981D01*
X0071068Y0074217D01*
X0070876Y0074448D01*
X0070679Y0074675D01*
X0070477Y0074897D01*
X0070269Y0075114D01*
X0070055Y0075326D01*
X0069837Y0075533D01*
X0069614Y0075734D01*
X0069385Y0075929D01*
X0069153Y0076119D01*
X0068915Y0076304D01*
X0068859Y0076228D01*
X0069094Y0076046D01*
X0069325Y0075857D01*
X0069552Y0075663D01*
X0069774Y0075463D01*
X0069990Y0075258D01*
X0070202Y0075048D01*
X0070408Y0074833D01*
X0070609Y0074613D01*
X0070805Y0074387D01*
X0070995Y0074158D01*
X0071179Y0073923D01*
X0071358Y0073684D01*
X0071531Y0073441D01*
X0071697Y0073194D01*
X0071858Y0072942D01*
X0072012Y0072687D01*
X0072160Y0072428D01*
X0072302Y0072166D01*
X0072437Y0071900D01*
X0072566Y0071631D01*
X0072688Y0071359D01*
X0072804Y0071084D01*
X0072913Y0070806D01*
X0073014Y0070526D01*
X0073109Y0070243D01*
X0073197Y0069958D01*
X0073278Y0069671D01*
X0073353Y0069383D01*
X0073419Y0069092D01*
X0073479Y0068800D01*
X0073532Y0068506D01*
X0073577Y0068211D01*
X0073616Y0067916D01*
X0073647Y0067619D01*
X0073670Y0067322D01*
X0073687Y0067024D01*
X0073696Y0066726D01*
X0073698Y0066428D01*
X0073692Y0066129D01*
X0073680Y0065831D01*
X0073660Y0065534D01*
X0073632Y0065237D01*
X0073598Y0064941D01*
X0073556Y0064645D01*
X0073507Y0064351D01*
X0073451Y0064058D01*
X0073388Y0063767D01*
X0073317Y0063477D01*
X0073240Y0063189D01*
X0073156Y0062903D01*
X0073064Y0062619D01*
X0072966Y0062337D01*
X0072861Y0062058D01*
X0072749Y0061782D01*
X0072630Y0061508D01*
X0072505Y0061238D01*
X0072373Y0060970D01*
X0072234Y0060706D01*
X0072089Y0060445D01*
X0071938Y0060188D01*
X0071781Y0059935D01*
X0071617Y0059686D01*
X0071447Y0059440D01*
X0071272Y0059199D01*
X0071090Y0058962D01*
X0070903Y0058730D01*
X0070711Y0058503D01*
X0070512Y0058280D01*
X0070309Y0058062D01*
X0070100Y0057849D01*
X0069886Y0057641D01*
X0069666Y0057439D01*
X0069443Y0057242D01*
X0069214Y0057051D01*
X0068980Y0056865D01*
X0068743Y0056685D01*
X0068501Y0056511D01*
X0068254Y0056343D01*
X0068004Y0056181D01*
X0067750Y0056025D01*
X0067492Y0055875D01*
X0067230Y0055732D01*
X0066965Y0055595D01*
X0066697Y0055464D01*
X0066426Y0055341D01*
X0066151Y0055224D01*
X0065874Y0055113D01*
X0065594Y0055010D01*
X0065312Y0054913D01*
X0065028Y0054823D01*
X0064741Y0054741D01*
X0064453Y0054665D01*
X0064163Y0054596D01*
X0063871Y0054535D01*
X0063578Y0054480D01*
X0063283Y0054433D01*
X0062988Y0054393D01*
X0062691Y0054360D01*
X0062394Y0054335D01*
X0062096Y0054317D01*
X0061798Y0054306D01*
X0061500Y0054302D01*
X0061202Y0054306D01*
X0060904Y0054317D01*
X0060606Y0054335D01*
X0060309Y0054360D01*
X0060012Y0054393D01*
X0059717Y0054433D01*
X0059422Y0054480D01*
X0059129Y0054535D01*
X0058837Y0054596D01*
X0058547Y0054665D01*
X0058259Y0054741D01*
X0057972Y0054823D01*
X0057688Y0054913D01*
X0057406Y0055010D01*
X0057126Y0055113D01*
X0056849Y0055224D01*
X0056574Y0055341D01*
X0056303Y0055464D01*
X0056035Y0055595D01*
X0055770Y0055732D01*
X0055508Y0055875D01*
X0055250Y0056025D01*
X0054996Y0056181D01*
X0054746Y0056343D01*
X0054499Y0056511D01*
X0054257Y0056685D01*
X0054020Y0056865D01*
X0053786Y0057051D01*
X0053557Y0057242D01*
X0053334Y0057439D01*
X0053114Y0057641D01*
X0052900Y0057849D01*
X0052691Y0058062D01*
X0052488Y0058280D01*
X0052289Y0058503D01*
X0052097Y0058730D01*
X0051910Y0058962D01*
X0051728Y0059199D01*
X0051553Y0059440D01*
X0051383Y0059686D01*
X0051219Y0059935D01*
X0051062Y0060188D01*
X0050911Y0060445D01*
X0050766Y0060706D01*
X0050627Y0060970D01*
X0050495Y0061238D01*
X0050370Y0061508D01*
X0050251Y0061782D01*
X0050139Y0062058D01*
X0050034Y0062337D01*
X0049936Y0062619D01*
X0049844Y0062903D01*
X0049760Y0063189D01*
X0049683Y0063477D01*
X0049612Y0063767D01*
X0049549Y0064058D01*
X0049493Y0064351D01*
X0049444Y0064645D01*
X0049402Y0064941D01*
X0049368Y0065237D01*
X0049340Y0065534D01*
X0049320Y0065831D01*
X0049308Y0066129D01*
X0049302Y0066428D01*
X0049304Y0066726D01*
X0049313Y0067024D01*
X0049330Y0067322D01*
X0049353Y0067619D01*
X0049384Y0067916D01*
X0049423Y0068211D01*
X0049468Y0068506D01*
X0049521Y0068800D01*
X0049581Y0069092D01*
X0049647Y0069383D01*
X0049722Y0069671D01*
X0049803Y0069958D01*
X0049891Y0070243D01*
X0049986Y0070526D01*
X0050087Y0070806D01*
X0050196Y0071084D01*
X0050312Y0071359D01*
X0050434Y0071631D01*
X0050563Y0071900D01*
X0050698Y0072166D01*
X0050840Y0072428D01*
X0050988Y0072687D01*
X0051142Y0072942D01*
X0051303Y0073194D01*
X0051469Y0073441D01*
X0051642Y0073684D01*
X0051821Y0073923D01*
X0052005Y0074158D01*
X0052195Y0074387D01*
X0052391Y0074613D01*
X0052592Y0074833D01*
X0052798Y0075048D01*
X0053010Y0075258D01*
X0053226Y0075463D01*
X0053448Y0075663D01*
X0053675Y0075857D01*
X0053906Y0076046D01*
X0054141Y0076228D01*
X0054198Y0076153D01*
X0053964Y0075972D01*
X0053735Y0075785D01*
X0053510Y0075592D01*
X0053290Y0075394D01*
X0053075Y0075191D01*
X0052865Y0074982D01*
X0052660Y0074768D01*
X0052461Y0074550D01*
X0052267Y0074326D01*
X0052078Y0074098D01*
X0051895Y0073866D01*
X0051718Y0073629D01*
X0051547Y0073387D01*
X0051381Y0073142D01*
X0051222Y0072893D01*
X0051069Y0072639D01*
X0050922Y0072383D01*
X0050781Y0072122D01*
X0050647Y0071858D01*
X0050519Y0071591D01*
X0050398Y0071321D01*
X0050283Y0071049D01*
X0050175Y0070773D01*
X0050074Y0070495D01*
X0049980Y0070214D01*
X0049893Y0069932D01*
X0049812Y0069647D01*
X0049739Y0069360D01*
X0049672Y0069072D01*
X0049613Y0068782D01*
X0049561Y0068490D01*
X0049516Y0068198D01*
X0049478Y0067904D01*
X0049447Y0067610D01*
X0049423Y0067315D01*
X0049407Y0067020D01*
X0049398Y0066724D01*
X0049396Y0066428D01*
X0049402Y0066132D01*
X0049414Y0065836D01*
X0049434Y0065541D01*
X0049461Y0065246D01*
X0049495Y0064952D01*
X0049537Y0064659D01*
X0049585Y0064367D01*
X0049641Y0064077D01*
X0049704Y0063788D01*
X0049774Y0063500D01*
X0049851Y0063214D01*
X0049934Y0062930D01*
X0050025Y0062649D01*
X0050123Y0062369D01*
X0050227Y0062092D01*
X0050338Y0061818D01*
X0050456Y0061547D01*
X0050580Y0061278D01*
X0050711Y0061013D01*
X0050849Y0060751D01*
X0050992Y0060492D01*
X0051142Y0060237D01*
X0051299Y0059985D01*
X0051461Y0059738D01*
X0051629Y0059495D01*
X0051804Y0059255D01*
X0051984Y0059020D01*
X0052169Y0058790D01*
X0052361Y0058564D01*
X0052557Y0058343D01*
X0052759Y0058127D01*
X0052967Y0057916D01*
X0053179Y0057710D01*
X0053397Y0057509D01*
X0053619Y0057313D01*
X0053846Y0057123D01*
X0054077Y0056939D01*
X0054313Y0056761D01*
X0054553Y0056588D01*
X0054798Y0056421D01*
X0055046Y0056260D01*
X0055299Y0056105D01*
X0055555Y0055957D01*
X0055814Y0055815D01*
X0056077Y0055679D01*
X0056343Y0055549D01*
X0056612Y0055427D01*
X0056885Y0055310D01*
X0057160Y0055201D01*
X0057437Y0055098D01*
X0057717Y0055002D01*
X0057999Y0054913D01*
X0058284Y0054831D01*
X0058570Y0054756D01*
X0058858Y0054688D01*
X0059147Y0054627D01*
X0059438Y0054573D01*
X0059731Y0054526D01*
X0060024Y0054486D01*
X0060318Y0054454D01*
X0060613Y0054429D01*
X0060908Y0054410D01*
X0061204Y0054400D01*
X0061500Y0054396D01*
X0061796Y0054400D01*
X0062092Y0054410D01*
X0062387Y0054429D01*
X0062682Y0054454D01*
X0062976Y0054486D01*
X0063269Y0054526D01*
X0063562Y0054573D01*
X0063853Y0054627D01*
X0064142Y0054688D01*
X0064430Y0054756D01*
X0064716Y0054831D01*
X0065001Y0054913D01*
X0065283Y0055002D01*
X0065563Y0055098D01*
X0065840Y0055201D01*
X0066115Y0055310D01*
X0066388Y0055427D01*
X0066657Y0055549D01*
X0066923Y0055679D01*
X0067186Y0055815D01*
X0067445Y0055957D01*
X0067701Y0056105D01*
X0067954Y0056260D01*
X0068202Y0056421D01*
X0068447Y0056588D01*
X0068687Y0056761D01*
X0068923Y0056939D01*
X0069154Y0057123D01*
X0069381Y0057313D01*
X0069603Y0057509D01*
X0069821Y0057710D01*
X0070033Y0057916D01*
X0070241Y0058127D01*
X0070443Y0058343D01*
X0070639Y0058564D01*
X0070831Y0058790D01*
X0071016Y0059020D01*
X0071196Y0059255D01*
X0071371Y0059495D01*
X0071539Y0059738D01*
X0071701Y0059985D01*
X0071858Y0060237D01*
X0072008Y0060492D01*
X0072151Y0060751D01*
X0072289Y0061013D01*
X0072420Y0061278D01*
X0072544Y0061547D01*
X0072662Y0061818D01*
X0072773Y0062092D01*
X0072877Y0062369D01*
X0072975Y0062649D01*
X0073066Y0062930D01*
X0073149Y0063214D01*
X0073226Y0063500D01*
X0073296Y0063788D01*
X0073359Y0064077D01*
X0073415Y0064367D01*
X0073463Y0064659D01*
X0073505Y0064952D01*
X0073539Y0065246D01*
X0073566Y0065541D01*
X0073586Y0065836D01*
X0073598Y0066132D01*
X0073604Y0066428D01*
X0073602Y0066724D01*
X0073593Y0067020D01*
X0073577Y0067315D01*
X0073553Y0067610D01*
X0073522Y0067904D01*
X0073484Y0068198D01*
X0073439Y0068490D01*
X0073387Y0068782D01*
X0073328Y0069072D01*
X0073261Y0069360D01*
X0073188Y0069647D01*
X0073107Y0069932D01*
X0073020Y0070214D01*
X0072926Y0070495D01*
X0072825Y0070773D01*
X0072717Y0071049D01*
X0072602Y0071321D01*
X0072481Y0071591D01*
X0072353Y0071858D01*
X0072219Y0072122D01*
X0072078Y0072383D01*
X0071931Y0072639D01*
X0071778Y0072893D01*
X0071619Y0073142D01*
X0071453Y0073387D01*
X0071282Y0073629D01*
X0071105Y0073866D01*
X0070922Y0074098D01*
X0070733Y0074326D01*
X0070539Y0074550D01*
X0070340Y0074768D01*
X0070135Y0074982D01*
X0069925Y0075191D01*
X0069710Y0075394D01*
X0069490Y0075592D01*
X0069265Y0075785D01*
X0069036Y0075972D01*
X0068802Y0076153D01*
D14*
X0051500Y0066500D02*
X0051503Y0066745D01*
X0051512Y0066991D01*
X0051527Y0067236D01*
X0051548Y0067480D01*
X0051575Y0067724D01*
X0051608Y0067967D01*
X0051647Y0068210D01*
X0051692Y0068451D01*
X0051743Y0068691D01*
X0051800Y0068930D01*
X0051862Y0069167D01*
X0051931Y0069403D01*
X0052005Y0069637D01*
X0052085Y0069869D01*
X0052170Y0070099D01*
X0052261Y0070327D01*
X0052358Y0070552D01*
X0052460Y0070776D01*
X0052568Y0070996D01*
X0052681Y0071214D01*
X0052799Y0071429D01*
X0052923Y0071641D01*
X0053051Y0071850D01*
X0053185Y0072056D01*
X0053324Y0072258D01*
X0053468Y0072457D01*
X0053617Y0072652D01*
X0053770Y0072844D01*
X0053928Y0073032D01*
X0054090Y0073216D01*
X0054258Y0073395D01*
X0054429Y0073571D01*
X0054605Y0073742D01*
X0054784Y0073910D01*
X0054968Y0074072D01*
X0055156Y0074230D01*
X0055348Y0074383D01*
X0055543Y0074532D01*
X0055742Y0074676D01*
X0055944Y0074815D01*
X0056150Y0074949D01*
X0056359Y0075077D01*
X0056571Y0075201D01*
X0056786Y0075319D01*
X0057004Y0075432D01*
X0057224Y0075540D01*
X0057448Y0075642D01*
X0057673Y0075739D01*
X0057901Y0075830D01*
X0058131Y0075915D01*
X0058363Y0075995D01*
X0058597Y0076069D01*
X0058833Y0076138D01*
X0059070Y0076200D01*
X0059309Y0076257D01*
X0059549Y0076308D01*
X0059790Y0076353D01*
X0060033Y0076392D01*
X0060276Y0076425D01*
X0060520Y0076452D01*
X0060764Y0076473D01*
X0061009Y0076488D01*
X0061255Y0076497D01*
X0061500Y0076500D01*
X0061745Y0076497D01*
X0061991Y0076488D01*
X0062236Y0076473D01*
X0062480Y0076452D01*
X0062724Y0076425D01*
X0062967Y0076392D01*
X0063210Y0076353D01*
X0063451Y0076308D01*
X0063691Y0076257D01*
X0063930Y0076200D01*
X0064167Y0076138D01*
X0064403Y0076069D01*
X0064637Y0075995D01*
X0064869Y0075915D01*
X0065099Y0075830D01*
X0065327Y0075739D01*
X0065552Y0075642D01*
X0065776Y0075540D01*
X0065996Y0075432D01*
X0066214Y0075319D01*
X0066429Y0075201D01*
X0066641Y0075077D01*
X0066850Y0074949D01*
X0067056Y0074815D01*
X0067258Y0074676D01*
X0067457Y0074532D01*
X0067652Y0074383D01*
X0067844Y0074230D01*
X0068032Y0074072D01*
X0068216Y0073910D01*
X0068395Y0073742D01*
X0068571Y0073571D01*
X0068742Y0073395D01*
X0068910Y0073216D01*
X0069072Y0073032D01*
X0069230Y0072844D01*
X0069383Y0072652D01*
X0069532Y0072457D01*
X0069676Y0072258D01*
X0069815Y0072056D01*
X0069949Y0071850D01*
X0070077Y0071641D01*
X0070201Y0071429D01*
X0070319Y0071214D01*
X0070432Y0070996D01*
X0070540Y0070776D01*
X0070642Y0070552D01*
X0070739Y0070327D01*
X0070830Y0070099D01*
X0070915Y0069869D01*
X0070995Y0069637D01*
X0071069Y0069403D01*
X0071138Y0069167D01*
X0071200Y0068930D01*
X0071257Y0068691D01*
X0071308Y0068451D01*
X0071353Y0068210D01*
X0071392Y0067967D01*
X0071425Y0067724D01*
X0071452Y0067480D01*
X0071473Y0067236D01*
X0071488Y0066991D01*
X0071497Y0066745D01*
X0071500Y0066500D01*
X0071497Y0066255D01*
X0071488Y0066009D01*
X0071473Y0065764D01*
X0071452Y0065520D01*
X0071425Y0065276D01*
X0071392Y0065033D01*
X0071353Y0064790D01*
X0071308Y0064549D01*
X0071257Y0064309D01*
X0071200Y0064070D01*
X0071138Y0063833D01*
X0071069Y0063597D01*
X0070995Y0063363D01*
X0070915Y0063131D01*
X0070830Y0062901D01*
X0070739Y0062673D01*
X0070642Y0062448D01*
X0070540Y0062224D01*
X0070432Y0062004D01*
X0070319Y0061786D01*
X0070201Y0061571D01*
X0070077Y0061359D01*
X0069949Y0061150D01*
X0069815Y0060944D01*
X0069676Y0060742D01*
X0069532Y0060543D01*
X0069383Y0060348D01*
X0069230Y0060156D01*
X0069072Y0059968D01*
X0068910Y0059784D01*
X0068742Y0059605D01*
X0068571Y0059429D01*
X0068395Y0059258D01*
X0068216Y0059090D01*
X0068032Y0058928D01*
X0067844Y0058770D01*
X0067652Y0058617D01*
X0067457Y0058468D01*
X0067258Y0058324D01*
X0067056Y0058185D01*
X0066850Y0058051D01*
X0066641Y0057923D01*
X0066429Y0057799D01*
X0066214Y0057681D01*
X0065996Y0057568D01*
X0065776Y0057460D01*
X0065552Y0057358D01*
X0065327Y0057261D01*
X0065099Y0057170D01*
X0064869Y0057085D01*
X0064637Y0057005D01*
X0064403Y0056931D01*
X0064167Y0056862D01*
X0063930Y0056800D01*
X0063691Y0056743D01*
X0063451Y0056692D01*
X0063210Y0056647D01*
X0062967Y0056608D01*
X0062724Y0056575D01*
X0062480Y0056548D01*
X0062236Y0056527D01*
X0061991Y0056512D01*
X0061745Y0056503D01*
X0061500Y0056500D01*
X0061255Y0056503D01*
X0061009Y0056512D01*
X0060764Y0056527D01*
X0060520Y0056548D01*
X0060276Y0056575D01*
X0060033Y0056608D01*
X0059790Y0056647D01*
X0059549Y0056692D01*
X0059309Y0056743D01*
X0059070Y0056800D01*
X0058833Y0056862D01*
X0058597Y0056931D01*
X0058363Y0057005D01*
X0058131Y0057085D01*
X0057901Y0057170D01*
X0057673Y0057261D01*
X0057448Y0057358D01*
X0057224Y0057460D01*
X0057004Y0057568D01*
X0056786Y0057681D01*
X0056571Y0057799D01*
X0056359Y0057923D01*
X0056150Y0058051D01*
X0055944Y0058185D01*
X0055742Y0058324D01*
X0055543Y0058468D01*
X0055348Y0058617D01*
X0055156Y0058770D01*
X0054968Y0058928D01*
X0054784Y0059090D01*
X0054605Y0059258D01*
X0054429Y0059429D01*
X0054258Y0059605D01*
X0054090Y0059784D01*
X0053928Y0059968D01*
X0053770Y0060156D01*
X0053617Y0060348D01*
X0053468Y0060543D01*
X0053324Y0060742D01*
X0053185Y0060944D01*
X0053051Y0061150D01*
X0052923Y0061359D01*
X0052799Y0061571D01*
X0052681Y0061786D01*
X0052568Y0062004D01*
X0052460Y0062224D01*
X0052358Y0062448D01*
X0052261Y0062673D01*
X0052170Y0062901D01*
X0052085Y0063131D01*
X0052005Y0063363D01*
X0051931Y0063597D01*
X0051862Y0063833D01*
X0051800Y0064070D01*
X0051743Y0064309D01*
X0051692Y0064549D01*
X0051647Y0064790D01*
X0051608Y0065033D01*
X0051575Y0065276D01*
X0051548Y0065520D01*
X0051527Y0065764D01*
X0051512Y0066009D01*
X0051503Y0066255D01*
X0051500Y0066500D01*
X0088800Y0070867D02*
X0089367Y0070300D01*
X0090501Y0070300D01*
X0091069Y0070867D01*
X0091069Y0071434D01*
X0090501Y0072001D01*
X0089934Y0072001D01*
X0090501Y0072001D02*
X0091069Y0072569D01*
X0091069Y0073136D01*
X0090501Y0073703D01*
X0089367Y0073703D01*
X0088800Y0073136D01*
X0092483Y0073136D02*
X0093050Y0073703D01*
X0094185Y0073703D01*
X0094752Y0073136D01*
X0094752Y0072569D01*
X0094185Y0072001D01*
X0094752Y0071434D01*
X0094752Y0070867D01*
X0094185Y0070300D01*
X0093050Y0070300D01*
X0092483Y0070867D01*
X0093617Y0072001D02*
X0094185Y0072001D01*
X0096166Y0070867D02*
X0098435Y0073136D01*
X0098435Y0070867D01*
X0097868Y0070300D01*
X0096733Y0070300D01*
X0096166Y0070867D01*
X0096166Y0073136D01*
X0096733Y0073703D01*
X0097868Y0073703D01*
X0098435Y0073136D01*
X0103533Y0073136D02*
X0103533Y0070867D01*
X0104100Y0070300D01*
X0105234Y0070300D01*
X0105801Y0070867D01*
X0105801Y0073136D01*
X0105234Y0073703D01*
X0104100Y0073703D01*
X0103533Y0073136D01*
X0107216Y0073703D02*
X0107216Y0070300D01*
X0107216Y0072001D02*
X0107783Y0072569D01*
X0108917Y0072569D01*
X0109484Y0072001D01*
X0109484Y0070300D01*
X0110899Y0070300D02*
X0110899Y0072569D01*
X0111466Y0072569D01*
X0112033Y0072001D01*
X0112600Y0072569D01*
X0113167Y0072001D01*
X0113167Y0070300D01*
X0112033Y0070300D02*
X0112033Y0072001D01*
X0114582Y0072001D02*
X0115149Y0071434D01*
X0116283Y0071434D01*
X0116851Y0070867D01*
X0116283Y0070300D01*
X0114582Y0070300D01*
X0114582Y0072001D02*
X0115149Y0072569D01*
X0116851Y0072569D01*
D15*
X0108744Y0054217D02*
X0108746Y0054322D01*
X0108752Y0054427D01*
X0108762Y0054531D01*
X0108776Y0054635D01*
X0108794Y0054739D01*
X0108816Y0054841D01*
X0108841Y0054943D01*
X0108871Y0055044D01*
X0108904Y0055143D01*
X0108941Y0055241D01*
X0108982Y0055338D01*
X0109027Y0055433D01*
X0109075Y0055526D01*
X0109126Y0055618D01*
X0109182Y0055707D01*
X0109240Y0055794D01*
X0109302Y0055879D01*
X0109366Y0055962D01*
X0109434Y0056042D01*
X0109505Y0056119D01*
X0109579Y0056193D01*
X0109656Y0056265D01*
X0109735Y0056334D01*
X0109817Y0056399D01*
X0109901Y0056462D01*
X0109988Y0056521D01*
X0110077Y0056577D01*
X0110168Y0056630D01*
X0110261Y0056679D01*
X0110355Y0056724D01*
X0110451Y0056766D01*
X0110549Y0056804D01*
X0110648Y0056838D01*
X0110749Y0056869D01*
X0110850Y0056895D01*
X0110953Y0056918D01*
X0111056Y0056937D01*
X0111160Y0056952D01*
X0111264Y0056963D01*
X0111369Y0056970D01*
X0111474Y0056973D01*
X0111579Y0056972D01*
X0111684Y0056967D01*
X0111788Y0056958D01*
X0111892Y0056945D01*
X0111996Y0056928D01*
X0112099Y0056907D01*
X0112201Y0056882D01*
X0112302Y0056854D01*
X0112401Y0056821D01*
X0112500Y0056785D01*
X0112597Y0056745D01*
X0112692Y0056702D01*
X0112786Y0056654D01*
X0112878Y0056604D01*
X0112968Y0056550D01*
X0113056Y0056492D01*
X0113141Y0056431D01*
X0113224Y0056367D01*
X0113305Y0056300D01*
X0113383Y0056230D01*
X0113458Y0056156D01*
X0113530Y0056081D01*
X0113600Y0056002D01*
X0113666Y0055921D01*
X0113730Y0055837D01*
X0113790Y0055751D01*
X0113846Y0055663D01*
X0113900Y0055572D01*
X0113950Y0055480D01*
X0113996Y0055386D01*
X0114039Y0055290D01*
X0114078Y0055192D01*
X0114113Y0055094D01*
X0114144Y0054993D01*
X0114172Y0054892D01*
X0114196Y0054790D01*
X0114216Y0054687D01*
X0114232Y0054583D01*
X0114244Y0054479D01*
X0114252Y0054374D01*
X0114256Y0054269D01*
X0114256Y0054165D01*
X0114252Y0054060D01*
X0114244Y0053955D01*
X0114232Y0053851D01*
X0114216Y0053747D01*
X0114196Y0053644D01*
X0114172Y0053542D01*
X0114144Y0053441D01*
X0114113Y0053340D01*
X0114078Y0053242D01*
X0114039Y0053144D01*
X0113996Y0053048D01*
X0113950Y0052954D01*
X0113900Y0052862D01*
X0113846Y0052771D01*
X0113790Y0052683D01*
X0113730Y0052597D01*
X0113666Y0052513D01*
X0113600Y0052432D01*
X0113530Y0052353D01*
X0113458Y0052278D01*
X0113383Y0052204D01*
X0113305Y0052134D01*
X0113224Y0052067D01*
X0113141Y0052003D01*
X0113056Y0051942D01*
X0112968Y0051884D01*
X0112878Y0051830D01*
X0112786Y0051780D01*
X0112692Y0051732D01*
X0112597Y0051689D01*
X0112500Y0051649D01*
X0112401Y0051613D01*
X0112302Y0051580D01*
X0112201Y0051552D01*
X0112099Y0051527D01*
X0111996Y0051506D01*
X0111892Y0051489D01*
X0111788Y0051476D01*
X0111684Y0051467D01*
X0111579Y0051462D01*
X0111474Y0051461D01*
X0111369Y0051464D01*
X0111264Y0051471D01*
X0111160Y0051482D01*
X0111056Y0051497D01*
X0110953Y0051516D01*
X0110850Y0051539D01*
X0110749Y0051565D01*
X0110648Y0051596D01*
X0110549Y0051630D01*
X0110451Y0051668D01*
X0110355Y0051710D01*
X0110261Y0051755D01*
X0110168Y0051804D01*
X0110077Y0051857D01*
X0109988Y0051913D01*
X0109901Y0051972D01*
X0109817Y0052035D01*
X0109735Y0052100D01*
X0109656Y0052169D01*
X0109579Y0052241D01*
X0109505Y0052315D01*
X0109434Y0052392D01*
X0109366Y0052472D01*
X0109302Y0052555D01*
X0109240Y0052640D01*
X0109182Y0052727D01*
X0109126Y0052816D01*
X0109075Y0052908D01*
X0109027Y0053001D01*
X0108982Y0053096D01*
X0108941Y0053193D01*
X0108904Y0053291D01*
X0108871Y0053390D01*
X0108841Y0053491D01*
X0108816Y0053593D01*
X0108794Y0053695D01*
X0108776Y0053799D01*
X0108762Y0053903D01*
X0108752Y0054007D01*
X0108746Y0054112D01*
X0108744Y0054217D01*
X0108744Y0018783D02*
X0108746Y0018888D01*
X0108752Y0018993D01*
X0108762Y0019097D01*
X0108776Y0019201D01*
X0108794Y0019305D01*
X0108816Y0019407D01*
X0108841Y0019509D01*
X0108871Y0019610D01*
X0108904Y0019709D01*
X0108941Y0019807D01*
X0108982Y0019904D01*
X0109027Y0019999D01*
X0109075Y0020092D01*
X0109126Y0020184D01*
X0109182Y0020273D01*
X0109240Y0020360D01*
X0109302Y0020445D01*
X0109366Y0020528D01*
X0109434Y0020608D01*
X0109505Y0020685D01*
X0109579Y0020759D01*
X0109656Y0020831D01*
X0109735Y0020900D01*
X0109817Y0020965D01*
X0109901Y0021028D01*
X0109988Y0021087D01*
X0110077Y0021143D01*
X0110168Y0021196D01*
X0110261Y0021245D01*
X0110355Y0021290D01*
X0110451Y0021332D01*
X0110549Y0021370D01*
X0110648Y0021404D01*
X0110749Y0021435D01*
X0110850Y0021461D01*
X0110953Y0021484D01*
X0111056Y0021503D01*
X0111160Y0021518D01*
X0111264Y0021529D01*
X0111369Y0021536D01*
X0111474Y0021539D01*
X0111579Y0021538D01*
X0111684Y0021533D01*
X0111788Y0021524D01*
X0111892Y0021511D01*
X0111996Y0021494D01*
X0112099Y0021473D01*
X0112201Y0021448D01*
X0112302Y0021420D01*
X0112401Y0021387D01*
X0112500Y0021351D01*
X0112597Y0021311D01*
X0112692Y0021268D01*
X0112786Y0021220D01*
X0112878Y0021170D01*
X0112968Y0021116D01*
X0113056Y0021058D01*
X0113141Y0020997D01*
X0113224Y0020933D01*
X0113305Y0020866D01*
X0113383Y0020796D01*
X0113458Y0020722D01*
X0113530Y0020647D01*
X0113600Y0020568D01*
X0113666Y0020487D01*
X0113730Y0020403D01*
X0113790Y0020317D01*
X0113846Y0020229D01*
X0113900Y0020138D01*
X0113950Y0020046D01*
X0113996Y0019952D01*
X0114039Y0019856D01*
X0114078Y0019758D01*
X0114113Y0019660D01*
X0114144Y0019559D01*
X0114172Y0019458D01*
X0114196Y0019356D01*
X0114216Y0019253D01*
X0114232Y0019149D01*
X0114244Y0019045D01*
X0114252Y0018940D01*
X0114256Y0018835D01*
X0114256Y0018731D01*
X0114252Y0018626D01*
X0114244Y0018521D01*
X0114232Y0018417D01*
X0114216Y0018313D01*
X0114196Y0018210D01*
X0114172Y0018108D01*
X0114144Y0018007D01*
X0114113Y0017906D01*
X0114078Y0017808D01*
X0114039Y0017710D01*
X0113996Y0017614D01*
X0113950Y0017520D01*
X0113900Y0017428D01*
X0113846Y0017337D01*
X0113790Y0017249D01*
X0113730Y0017163D01*
X0113666Y0017079D01*
X0113600Y0016998D01*
X0113530Y0016919D01*
X0113458Y0016844D01*
X0113383Y0016770D01*
X0113305Y0016700D01*
X0113224Y0016633D01*
X0113141Y0016569D01*
X0113056Y0016508D01*
X0112968Y0016450D01*
X0112878Y0016396D01*
X0112786Y0016346D01*
X0112692Y0016298D01*
X0112597Y0016255D01*
X0112500Y0016215D01*
X0112401Y0016179D01*
X0112302Y0016146D01*
X0112201Y0016118D01*
X0112099Y0016093D01*
X0111996Y0016072D01*
X0111892Y0016055D01*
X0111788Y0016042D01*
X0111684Y0016033D01*
X0111579Y0016028D01*
X0111474Y0016027D01*
X0111369Y0016030D01*
X0111264Y0016037D01*
X0111160Y0016048D01*
X0111056Y0016063D01*
X0110953Y0016082D01*
X0110850Y0016105D01*
X0110749Y0016131D01*
X0110648Y0016162D01*
X0110549Y0016196D01*
X0110451Y0016234D01*
X0110355Y0016276D01*
X0110261Y0016321D01*
X0110168Y0016370D01*
X0110077Y0016423D01*
X0109988Y0016479D01*
X0109901Y0016538D01*
X0109817Y0016601D01*
X0109735Y0016666D01*
X0109656Y0016735D01*
X0109579Y0016807D01*
X0109505Y0016881D01*
X0109434Y0016958D01*
X0109366Y0017038D01*
X0109302Y0017121D01*
X0109240Y0017206D01*
X0109182Y0017293D01*
X0109126Y0017382D01*
X0109075Y0017474D01*
X0109027Y0017567D01*
X0108982Y0017662D01*
X0108941Y0017759D01*
X0108904Y0017857D01*
X0108871Y0017956D01*
X0108841Y0018057D01*
X0108816Y0018159D01*
X0108794Y0018261D01*
X0108776Y0018365D01*
X0108762Y0018469D01*
X0108752Y0018573D01*
X0108746Y0018678D01*
X0108744Y0018783D01*
M02*
